<?xml version="1.0" encoding="UTF-8"?>
<svg width="624px" height="323px" viewBox="0 0 624 323" version="1.1" xmlns="http://www.w3.org/2000/svg" xmlns:xlink="http://www.w3.org/1999/xlink">
    <!-- Generator: Sketch 63.1 (92452) - https://sketch.com -->
    <title>email-signature</title>
    <desc>Created with Sketch.</desc>
    <g id="email-signature" stroke="none" stroke-width="1" fill="none" fill-rule="evenodd">
        <path d="M8,313.837079 L8,280.061798 L27.9728794,280.061798 L27.9728794,284.855056 L12.9108729,284.855056 L12.9108729,294.997753 L26.0963669,294.997753 L26.0963669,299.740449 L12.9108729,299.740449 L12.9108729,313.837079 L8,313.837079 Z M35.1395597,313.837079 L35.1395597,280.061798 L40.0504326,280.061798 L40.0504326,313.837079 L35.1395597,313.837079 Z M49.4130317,280.061798 L58.5560389,280.061798 C60.2994654,280.061798 61.9131329,280.304494 63.3970417,280.789888 C64.8809504,281.268539 66.1519216,281.95618 67.2099552,282.852809 C68.2679888,283.75618 69.0931219,284.865169 69.6853545,286.179775 C70.2842415,287.501124 70.5836849,289.02809 70.5836849,290.760674 L70.5836849,290.760674 C70.5836849,292.095506 70.3840559,293.413483 69.984798,294.714607 C69.58554,296.022472 68.9434001,297.202247 68.0583783,298.253933 C67.1733565,299.305618 66.0088542,300.151685 64.5648712,300.792135 C63.1275426,301.425843 61.337536,301.742697 59.1948517,301.742697 L59.1948517,301.742697 L54.333886,301.742697 L54.333886,313.837079 L49.4130317,313.837079 L49.4130317,280.061798 Z M54.333886,297 L59.1050186,297 C60.3626812,297 61.4107333,296.797753 62.2491751,296.393258 C63.0942711,295.988764 63.7530467,295.483146 64.2255019,294.876404 C64.6979572,294.276404 65.0339993,293.625843 65.2336283,292.924719 C65.4332573,292.230337 65.5330718,291.55618 65.5330718,290.902247 L65.5330718,290.902247 C65.5330718,290.282022 65.4332573,289.631461 65.2336283,288.950562 C65.0339993,288.269663 64.6979572,287.619101 64.2255019,286.998876 C63.7530467,286.378652 63.1175611,285.866292 62.3190452,285.461798 C61.5205293,285.057303 60.5423473,284.855056 59.3844992,284.855056 L59.3844992,284.855056 L54.333886,284.855056 L54.333886,297 Z M58.9253526,300.023596 L64.7545187,299.882022 L73.3884721,313.837079 L67.6890647,313.837079 L58.9253526,300.023596 Z M79.946284,313.837079 L79.946284,280.061798 L101.855564,280.061798 L101.855564,284.855056 L84.8671384,284.855056 L84.8671384,294.482022 L99.9690706,294.482022 L99.9690706,299.275281 L84.8671384,299.275281 L84.8671384,309.04382 L102.494377,309.04382 L102.494377,313.837079 L79.946284,313.837079 Z M124.62325,280.061798 L133.486776,280.061798 C136.853852,280.061798 139.508917,280.759551 141.451972,282.155056 C143.395028,283.550562 144.366556,285.691011 144.366556,288.576404 L144.366556,288.576404 C144.366556,290.437079 143.947335,292.034831 143.108893,293.369663 C142.263797,294.704494 141.099295,295.735955 139.615386,296.464045 C138.131477,297.192135 136.378069,297.603371 134.355162,297.697753 L134.355162,297.697753 L133.626517,295.048315 C135.982138,295.108989 138.084897,295.520225 139.934792,296.282022 C141.791342,297.037079 143.261942,298.088764 144.346593,299.437079 C145.431243,300.785393 145.973569,302.389888 145.973569,304.250562 L145.973569,304.250562 C145.973569,305.95618 145.660817,307.422472 145.035313,308.649438 C144.409809,309.876404 143.56804,310.867416 142.510006,311.622472 C141.451972,312.38427 140.257526,312.94382 138.926666,313.301124 C137.595806,313.658427 136.211712,313.837079 134.774383,313.837079 L134.774383,313.837079 L124.62325,313.837079 L124.62325,280.061798 Z M129.534122,294.674157 L134.355162,294.674157 C136.071972,294.674157 137.329634,294.178652 138.12815,293.18764 C138.920012,292.189888 139.315942,291.010112 139.315942,289.648315 L139.315942,289.648315 C139.315942,287.976404 138.803561,286.759551 137.778799,285.997753 C136.754037,285.235955 135.399887,284.855056 133.71635,284.855056 L133.71635,284.855056 L129.534122,284.855056 L129.534122,294.674157 Z M129.534122,309.235955 L134.54481,309.235955 C135.735929,309.235955 136.813926,309.057303 137.778799,308.7 C138.743673,308.342697 139.508917,307.8 140.074533,307.07191 C140.640148,306.34382 140.922956,305.420225 140.922956,304.301124 L140.922956,304.301124 C140.922956,303.060674 140.593568,302.093258 139.934792,301.398876 C139.276017,300.697753 138.434248,300.198876 137.409486,299.902247 C136.384724,299.61236 135.323363,299.467416 134.225403,299.467416 L134.225403,299.467416 L129.534122,299.467416 L129.534122,309.235955 Z M153.279989,313.837079 L153.279989,280.061798 L158.190862,280.061798 L158.190862,313.837079 L153.279989,313.837079 Z M167.553461,280.061798 L176.696469,280.061798 C178.439895,280.061798 180.053563,280.304494 181.537471,280.789888 C183.02138,281.268539 184.292351,281.95618 185.350385,282.852809 C186.401764,283.75618 187.226897,284.865169 187.825784,286.179775 C188.424671,287.501124 188.724115,289.02809 188.724115,290.760674 L188.724115,290.760674 C188.724115,292.095506 188.524486,293.413483 188.125228,294.714607 C187.72597,296.022472 187.08383,297.202247 186.198808,298.253933 C185.307132,299.305618 184.14263,300.151685 182.705301,300.792135 C181.267972,301.425843 179.477966,301.742697 177.335281,301.742697 L177.335281,301.742697 L172.464334,301.742697 L172.464334,313.837079 L167.553461,313.837079 L167.553461,280.061798 Z M172.464334,297 L177.245448,297 C178.496457,297 179.544509,296.797753 180.389605,296.393258 C181.228047,295.988764 181.886822,295.483146 182.365932,294.876404 C182.838387,294.276404 183.174429,293.625843 183.374058,292.924719 C183.573687,292.230337 183.673502,291.55618 183.673502,290.902247 L183.673502,290.902247 C183.673502,290.282022 183.573687,289.631461 183.374058,288.950562 C183.174429,288.269663 182.838387,287.619101 182.365932,286.998876 C181.886822,286.378652 181.251337,285.866292 180.459475,285.461798 C179.660959,285.057303 178.67945,284.855056 177.514948,284.855056 L177.514948,284.855056 L172.464334,284.855056 L172.464334,297 Z M177.055801,300.023596 L182.894949,299.882022 L191.51892,313.837079 L185.829495,313.837079 L177.055801,300.023596 Z M208.966493,313.837079 L198.086714,313.837079 L198.086714,280.061798 L207.35948,280.061798 C210.666667,280.061798 213.484762,280.574157 215.813767,281.598876 C218.136118,282.623596 220.009303,283.97191 221.433323,285.64382 C222.857343,287.322472 223.898741,289.183146 224.557516,291.225843 C225.216292,293.275281 225.54568,295.338202 225.54568,297.414607 L225.54568,297.414607 C225.54568,299.929213 225.103169,302.194382 224.218147,304.210112 C223.326471,306.225843 222.115389,307.955056 220.5849,309.397753 C219.054411,310.840449 217.294349,311.939326 215.304713,312.694382 C213.315078,313.45618 211.202338,313.837079 208.966493,313.837079 L208.966493,313.837079 Z M202.997587,284.855056 L202.997587,309.04382 L208.0482,309.04382 C209.858169,309.04382 211.518417,308.780899 213.028943,308.255056 C214.546123,307.729213 215.863674,306.953933 216.981597,305.929213 C218.099519,304.904494 218.964578,303.647191 219.576773,302.157303 C220.188969,300.674157 220.495067,298.968539 220.495067,297.040449 L220.495067,297.040449 C220.495067,294.964045 220.149043,293.160674 219.456996,291.630337 C218.771603,290.093258 217.863291,288.819101 216.73206,287.807865 C215.60083,286.803371 214.336513,286.058427 212.93911,285.573034 C211.548361,285.094382 210.134323,284.855056 208.696994,284.855056 L208.696994,284.855056 L202.997587,284.855056 Z M245.009505,284.855056 L245.009505,280.061798 L267.238192,280.061798 L267.238192,284.855056 L258.464499,284.855056 L258.464499,313.837079 L253.553626,313.837079 L253.553626,284.855056 L245.009505,284.855056 Z M274.165318,313.837079 L274.165318,280.061798 L296.074598,280.061798 L296.074598,284.855056 L279.086172,284.855056 L279.086172,294.482022 L294.188104,294.482022 L294.188104,299.275281 L279.086172,299.275281 L279.086172,309.04382 L296.713411,309.04382 L296.713411,313.837079 L274.165318,313.837079 Z M326.737609,306.808989 L328.803769,311.278652 C328.318005,311.622472 327.592687,312.033708 326.627813,312.51236 C325.66294,312.991011 324.528382,313.402247 323.224139,313.746067 C321.926551,314.083146 320.495877,314.238202 318.932116,314.211236 L318.932116,314.211236 C316.330285,314.177528 313.997953,313.71236 311.935121,312.81573 C309.865633,311.91236 308.112226,310.678652 306.674897,309.114607 C305.237568,307.550562 304.129628,305.753933 303.351074,303.724719 C302.565867,301.688764 302.173264,299.524719 302.173264,297.232584 L302.173264,297.232584 C302.173264,294.691011 302.572521,292.358427 303.371037,290.234831 C304.169553,288.104494 305.310766,286.250562 306.794674,284.673034 C308.278583,283.088764 310.02201,281.861798 312.024954,280.992135 C314.027898,280.129213 316.223816,279.697753 318.61271,279.697753 L318.61271,279.697753 C320.662234,279.697753 322.515456,279.974157 324.172377,280.526966 C325.822643,281.086517 327.213392,281.740449 328.344623,282.488764 L328.344623,282.488764 L326.418203,287.140449 C325.533181,286.520225 324.438549,285.920225 323.134306,285.340449 C321.836718,284.767416 320.392735,284.480899 318.802357,284.480899 L318.802357,284.480899 C317.238597,284.480899 315.761343,284.801124 314.370594,285.441573 C312.973191,286.075281 311.7488,286.958427 310.697421,288.091011 C309.639387,289.223596 308.804273,290.541573 308.192077,292.044944 C307.579882,293.548315 307.273784,295.183146 307.273784,296.949438 L307.273784,296.949438 C307.273784,298.749438 307.549937,300.407865 308.102244,301.924719 C308.654551,303.448315 309.443085,304.766292 310.467848,305.878652 C311.49261,306.997753 312.723655,307.867416 314.160984,308.48764 C315.598312,309.107865 317.221961,309.417978 319.031931,309.417978 L319.031931,309.417978 C320.742086,309.417978 322.249284,309.155056 323.553527,308.629213 C324.851116,308.103371 325.912476,307.496629 326.737609,306.808989 L326.737609,306.808989 Z M357.959582,280.061798 L362.880436,280.061798 L362.880436,313.837079 L357.959582,313.837079 L357.959582,299.275281 L341.07097,299.275281 L341.07097,313.837079 L336.150116,313.837079 L336.150116,280.061798 L341.07097,280.061798 L341.07097,294.532584 L357.959582,294.532584 L357.959582,280.061798 Z M401.448755,315 L401.309014,315 L375.636728,289.183146 L377.064075,289.648315 L377.203815,313.837079 L372.243035,313.837079 L372.243035,279 L372.472608,279 L397.815507,304.857303 L396.667641,304.533708 L396.577808,280.061798 L401.448755,280.061798 L401.448755,315 Z M408.795101,297 L408.795101,297 C408.795101,294.674157 409.230958,292.473034 410.102671,290.396629 C410.974384,288.313483 412.188794,286.466292 413.7459,284.855056 C415.30966,283.24382 417.116302,281.979775 419.165827,281.062921 C421.215351,280.152809 423.421251,279.697753 425.783527,279.697753 L425.783527,279.697753 C428.105878,279.697753 430.291815,280.152809 432.341339,281.062921 C434.397518,281.979775 436.220796,283.24382 437.811173,284.855056 C439.401551,286.466292 440.639251,288.313483 441.524272,290.396629 C442.415948,292.473034 442.861786,294.674157 442.861786,297 L442.861786,297 C442.861786,299.386517 442.415948,301.617978 441.524272,303.694382 C440.639251,305.770787 439.408205,307.601124 437.831136,309.185393 C436.254067,310.769663 434.434116,312.003371 432.371284,312.886517 C430.301797,313.769663 428.105878,314.211236 425.783527,314.211236 L425.783527,314.211236 C423.421251,314.211236 421.215351,313.776404 419.165827,312.906742 C417.116302,312.037079 415.30966,310.820225 413.7459,309.25618 C412.188794,307.692135 410.974384,305.861798 410.102671,303.765169 C409.230958,301.675281 408.795101,299.420225 408.795101,297 Z M413.845714,297 L413.845714,297 C413.845714,298.732584 414.158466,300.353933 414.783971,301.864045 C415.409475,303.367416 416.274534,304.685393 417.379147,305.817978 C418.477107,306.94382 419.754732,307.826966 421.212024,308.467416 C422.662661,309.101124 424.229748,309.417978 425.913286,309.417978 L425.913286,309.417978 C427.570207,309.417978 429.117331,309.101124 430.55466,308.467416 C431.991989,307.826966 433.252978,306.94382 434.337629,305.817978 C435.428934,304.685393 436.280684,303.367416 436.89288,301.864045 C437.505076,300.353933 437.811173,298.732584 437.811173,297 L437.811173,297 C437.811173,295.260674 437.495094,293.639326 436.862936,292.135955 C436.237432,290.632584 435.382354,289.307865 434.297703,288.161798 C433.213052,287.01573 431.942081,286.11573 430.48479,285.461798 C429.034153,284.807865 427.480374,284.480899 425.823453,284.480899 L425.823453,284.480899 C424.113298,284.480899 422.536229,284.807865 421.092246,285.461798 C419.654918,286.11573 418.387274,287.01573 417.289314,288.161798 C416.184701,289.307865 415.33295,290.639326 414.734063,292.15618 C414.141831,293.679775 413.845714,295.294382 413.845714,297 Z M450.158226,313.837079 L450.158226,280.061798 L455.069099,280.061798 L455.069099,309.04382 L471.738118,309.04382 L471.738118,313.837079 L450.158226,313.837079 Z M476.189845,297 L476.189845,297 C476.189845,294.674157 476.625701,292.473034 477.497414,290.396629 C478.375782,288.313483 479.593519,286.466292 481.150625,284.855056 C482.714385,283.24382 484.521027,281.979775 486.570551,281.062921 C488.620076,280.152809 490.822649,279.697753 493.178271,279.697753 L493.178271,279.697753 C495.507275,279.697753 497.69654,280.152809 499.746064,281.062921 C501.795588,281.979775 503.618866,283.24382 505.215898,284.855056 C506.806276,286.466292 508.043975,288.313483 508.928997,290.396629 C509.820673,292.473034 510.266511,294.674157 510.266511,297 L510.266511,297 C510.266511,299.386517 509.820673,301.617978 508.928997,303.694382 C508.043975,305.770787 506.81293,307.601124 505.235861,309.185393 C503.658792,310.769663 501.835514,312.003371 499.766027,312.886517 C497.703194,313.769663 495.507275,314.211236 493.178271,314.211236 L493.178271,314.211236 C490.822649,314.211236 488.620076,313.776404 486.570551,312.906742 C484.521027,312.037079 482.714385,310.820225 481.150625,309.25618 C479.593519,307.692135 478.375782,305.861798 477.497414,303.765169 C476.625701,301.675281 476.189845,299.420225 476.189845,297 Z M481.240458,297 L481.240458,297 C481.240458,298.732584 481.556537,300.353933 482.188695,301.864045 C482.814199,303.367416 483.679258,304.685393 484.783872,305.817978 C485.881831,306.94382 487.159457,307.826966 488.616748,308.467416 C490.067386,309.101124 491.634473,309.417978 493.318011,309.417978 L493.318011,309.417978 C494.974931,309.417978 496.522056,309.101124 497.959385,308.467416 C499.396713,307.826966 500.657703,306.94382 501.742354,305.817978 C502.833659,304.685393 503.685409,303.367416 504.297605,301.864045 C504.9098,300.353933 505.215898,298.732584 505.215898,297 L505.215898,297 C505.215898,295.260674 504.899819,293.639326 504.26766,292.135955 C503.642156,290.632584 502.787079,289.307865 501.702428,288.161798 C500.611123,287.01573 499.340152,286.11573 497.889515,285.461798 C496.432223,284.807865 494.878444,284.480899 493.228178,284.480899 L493.228178,284.480899 C491.511369,284.480899 489.9343,284.807865 488.496971,285.461798 C487.059642,286.11573 485.788671,287.01573 484.684058,288.161798 C483.586098,289.307865 482.737675,290.639326 482.138788,292.15618 C481.539901,293.679775 481.240458,295.294382 481.240458,297 Z M543.87405,297.091011 L543.87405,310.864045 C543.414903,311.261798 542.772763,311.662921 541.94763,312.067416 C541.115843,312.47191 540.187568,312.829213 539.162806,313.139326 C538.138044,313.449438 537.089992,313.705618 536.01865,313.907865 C534.947307,314.110112 533.939181,314.211236 532.994271,314.211236 L532.994271,314.211236 C530.299279,314.211236 527.880442,313.793258 525.737757,312.957303 C523.595073,312.114607 521.758486,310.951685 520.227997,309.468539 C518.697508,307.978652 517.526352,306.232584 516.714527,304.230337 C515.902703,302.22809 515.496791,300.050562 515.496791,297.697753 L515.496791,297.697753 C515.496791,294.81236 515.955937,292.253933 516.87423,290.022472 C517.792524,287.791011 519.040205,285.906742 520.617274,284.369663 C522.194343,282.832584 524.014294,281.669663 526.077126,280.880899 C528.146613,280.092135 530.312588,279.697753 532.57505,279.697753 L532.57505,279.697753 C534.564685,279.697753 536.407926,279.930337 538.104772,280.395506 C539.808273,280.860674 541.272219,281.464045 542.49661,282.205618 L542.49661,282.205618 L540.889597,286.766292 C540.277401,286.422472 539.518811,286.088764 538.613826,285.765169 C537.708842,285.441573 536.783894,285.185393 535.838983,284.996629 C534.887419,284.807865 534.015705,284.713483 533.223844,284.713483 L533.223844,284.713483 C531.260826,284.713483 529.507418,285 527.96362,285.573034 C526.419823,286.152809 525.095617,286.985393 523.991004,288.070787 C522.88639,289.15618 522.037967,290.474157 521.445734,292.024719 C520.846847,293.575281 520.547404,295.324719 520.547404,297.273034 L520.547404,297.273034 C520.547404,299.046067 520.853501,300.667416 521.465697,302.137079 C522.077893,303.613483 522.936297,304.88427 524.040911,305.949438 C525.13887,307.021348 526.453094,307.84382 527.983583,308.416854 C529.514072,308.989888 531.214245,309.276404 533.084104,309.276404 L533.084104,309.276404 C534.155446,309.276404 535.210152,309.168539 536.248223,308.952809 C537.292948,308.737079 538.181297,308.426966 538.91327,308.022472 L538.91327,308.022472 L538.91327,301.88427 L532.485217,301.88427 L532.485217,297.091011 L543.87405,297.091011 Z M552.178615,313.837079 L552.178615,280.061798 L557.09947,280.061798 L557.09947,313.837079 L552.178615,313.837079 Z M566.462069,313.837079 L566.462069,280.061798 L588.361368,280.061798 L588.361368,284.855056 L571.372942,284.855056 L571.372942,294.482022 L586.484855,294.482022 L586.484855,299.275281 L571.372942,299.275281 L571.372942,309.04382 L589.010162,309.04382 L589.010162,313.837079 L566.462069,313.837079 Z M615.770427,282.721348 L613.893914,286.533708 C612.729412,285.913483 611.475076,285.38427 610.130908,284.946067 C608.780085,284.514607 607.47917,284.298876 606.228161,284.298876 L606.228161,284.298876 C604.511352,284.298876 603.147221,284.693258 602.135767,285.482022 C601.124314,286.277528 600.618587,287.35618 600.618587,288.717978 L600.618587,288.717978 C600.618587,289.682022 600.957956,290.517978 601.636695,291.225843 C602.308779,291.940449 603.180492,292.560674 604.251835,293.086517 C605.323177,293.619101 606.454408,294.117978 607.645527,294.583146 L607.645527,294.583146 C608.656981,294.953933 609.658453,295.395506 610.649943,295.907865 C611.648088,296.420225 612.553073,297.047191 613.364897,297.788764 C614.176722,298.530337 614.818862,299.453933 615.291317,300.559551 C615.763772,301.658427 616,303 616,304.58427 L616,304.58427 C616,306.377528 615.564143,308.005618 614.69243,309.468539 C613.820717,310.924719 612.566382,312.077528 610.929424,312.926966 C609.292466,313.783146 607.309485,314.211236 604.98048,314.211236 L604.98048,314.211236 C603.576423,314.211236 602.208965,314.046067 600.878105,313.71573 C599.547245,313.392135 598.289582,312.960674 597.105117,312.421348 C595.927306,311.875281 594.865945,311.278652 593.921035,310.631461 L593.921035,310.631461 L596.126935,306.768539 C596.858908,307.294382 597.700677,307.796629 598.652242,308.275281 C599.597152,308.760674 600.581989,309.141573 601.606751,309.417978 C602.631513,309.694382 603.60304,309.832584 604.521334,309.832584 L604.521334,309.832584 C605.532787,309.832584 606.527605,309.657303 607.505787,309.306742 C608.490623,308.949438 609.302448,308.389888 609.94126,307.62809 C610.586728,306.866292 610.909461,305.865169 610.909461,304.624719 L610.909461,304.624719 C610.909461,303.573034 610.626653,302.683146 610.061038,301.955056 C609.495422,301.226966 608.743487,300.596629 607.80523,300.064045 C606.873629,299.538202 605.872156,299.073034 604.800814,298.668539 L604.800814,298.668539 C603.762744,298.270787 602.708037,297.822472 601.636695,297.323596 C600.565353,296.824719 599.570535,296.22809 598.652242,295.533708 C597.733948,294.832584 596.988667,293.962921 596.416397,292.924719 C595.850782,291.886517 595.567974,290.608989 595.567974,289.092135 L595.567974,289.092135 C595.567974,287.292135 595.990522,285.717978 596.835618,284.369663 C597.67406,283.021348 598.845216,281.959551 600.349088,281.18427 C601.846305,280.408989 603.576423,279.974157 605.539441,279.879775 L605.539441,279.879775 C607.768632,279.879775 609.711687,280.159551 611.368608,280.719101 C613.018874,281.278652 614.486147,281.946067 615.770427,282.721348 L615.770427,282.721348 Z" id="Shape" fill="#27272A" fill-rule="nonzero"></path>
        <path d="M438.985954,72.6076931 C438.985954,72.2438095 438.980968,71.9258287 438.970997,71.6537506 C438.956039,71.2130843 438.943574,70.8850883 438.938588,70.689793 L438.938588,70.479475 C438.938588,70.479475 433.638578,90.5823725 414.786893,99.3556386 C414.67471,99.4057143 414.562528,99.4607976 414.455331,99.5133771 C397.124346,107.723291 392.843951,121.464069 392.65698,121.924765 C392.749219,121.368925 395.942687,103.544472 414.80933,91.9494397 C415.372736,91.6039172 415.913706,91.247545 416.43224,90.8803231 C441.267003,73.4990409 416.733887,36.7985462 416.733887,36.7985462 C416.733887,36.7985462 417.160181,42.1040687 415.322877,49.3425139 C415.126765,50.11368 414.903231,50.9032071 414.652274,51.7110954 C414.17848,53.2497982 413.626821,54.763218 412.999448,56.2454518 C411.00584,62.0748213 408.160177,67.5740247 404.555828,72.5626249 C401.161194,77.2259064 397.055565,81.3223425 392.390234,84.7009793 C392.574713,84.5156991 395.730787,81.3984856 399.335592,75.4770318 C402.752994,69.825333 405.395272,63.7362475 407.190876,57.3746593 C407.759268,55.3816456 408.263675,53.2826384 408.704096,51.0776376 C408.753955,50.8522968 408.798828,50.6194447 408.841208,50.3890964 C412.829928,11.7832206 354.245613,8 354.245613,8 C354.245613,8 406.415568,26.951156 381.256722,58.4062191 C390.542959,36.9838264 364.369481,29.9206461 363.908286,29.8004644 C364.180017,29.9832408 376.584934,38.543685 365.925082,61.448319 C352.388366,90.5348006 346.405287,106.619122 348.933138,133.126704 C348.955574,133.389601 348.98549,133.655003 349.012912,133.922908 C348.092696,132.611887 347.334282,131.193558 346.7543,129.699021 C346.45609,128.934117 346.220148,128.146179 346.048795,127.342958 C345.969021,126.989924 345.90919,126.646906 345.864317,126.321413 C345.865647,126.310605 345.865647,126.299673 345.864317,126.288864 C345.827754,126.038486 345.800331,125.795618 345.782049,125.560262 C345.723597,124.876317 345.723597,124.1886 345.782049,123.504654 C345.804486,123.374457 345.82443,123.239253 345.846866,123.106552 C345.914176,122.705946 345.991457,122.297829 346.076218,121.879697 C345.729128,121.880729 345.382848,121.913413 345.041643,121.977345 C344.969348,121.977345 344.892066,122.004886 344.812292,122.019909 C344.692631,122.044947 344.562997,122.072489 344.430871,122.105038 L344.156646,122.180151 C344.029506,122.217708 343.907351,122.257769 343.757774,122.305341 C343.608197,122.352913 343.476071,122.400485 343.33148,122.458072 C343.114593,122.545704 342.890228,122.645856 342.655891,122.756022 C342.576116,122.793579 342.501328,122.83364 342.421553,122.8737 C342.341779,122.913761 342.192202,122.996386 342.072541,123.061484 L341.721035,123.271802 C341.601373,123.346916 341.47174,123.422029 341.364543,123.504654 C341.257346,123.587279 341.115248,123.674912 341.000572,123.755033 C340.885897,123.835154 340.751277,123.942817 340.636602,124.042968 C340.521926,124.14312 340.387307,124.245775 340.272631,124.355941 C340.157955,124.466108 340.023336,124.578778 339.90866,124.69896 C339.349093,125.250679 338.841683,125.853335 338.392947,126.499182 C338.270792,126.674447 338.143652,126.859727 338.033962,127.047511 C337.85447,127.327935 337.679963,127.630893 337.510443,127.946371 C337.467232,128.024822 337.424852,128.108282 337.383302,128.196749 C337.256162,128.447128 337.134007,128.697506 337.016839,128.947885 C336.991909,129.000464 336.964487,129.05054 336.944543,129.10312 C336.9246,129.155699 336.894684,129.218294 336.869755,129.275881 L336.869755,129.275881 C336.89967,129.073074 336.927093,128.872771 336.961994,128.672468 C337.064205,128.07156 337.196331,127.470651 337.35588,126.879758 C337.800685,125.274445 338.450069,123.733554 339.287916,122.295326 C339.50231,121.926434 339.727506,121.565055 339.963505,121.211186 C340.2128,120.853145 340.447137,120.500111 340.71139,120.157092 C340.868446,119.946774 341.025502,119.741464 341.172586,119.536153 C341.475064,119.125533 341.763415,118.721588 342.037639,118.324321 L342.44399,117.72842 C342.693285,117.332822 342.960031,116.942231 343.191875,116.556648 C344.578441,114.395334 345.695341,112.071099 346.51747,109.636184 C346.719399,109.02526 346.883933,108.431863 347.01606,107.850984 C347.070904,107.62314 347.123256,107.395295 347.165636,107.172458 C347.208017,106.949621 347.25289,106.706754 347.290284,106.47891 C347.432438,105.617195 347.50911,104.745867 347.519635,103.872468 C347.519635,103.85995 347.519635,103.857446 347.519635,103.852438 L347.519635,103.852438 C347.562015,98.7922867 345.201192,95.2970015 342.98496,93.1362342 C342.855327,93.0085411 342.735665,92.8858556 342.598553,92.7681777 C342.461441,92.6504997 342.349258,92.5403332 342.219625,92.4326704 C342.089991,92.3250076 341.97033,92.2198486 341.850668,92.1222009 C341.426867,91.7741747 341.025502,91.4812317 340.673996,91.2383645 L340.379828,91.0455729 C340.010099,90.7995874 339.62636,90.5755332 339.230578,90.3745583 C340.065716,93.0460979 340.414729,95.3070167 340.414729,97.2199091 C340.414729,97.3868282 340.414729,97.5537473 340.414729,97.7206663 C340.414729,97.8959313 340.397278,98.0686926 340.387307,98.23895 C340.377335,98.4092075 340.367363,98.5068551 340.354898,98.6345482 C340.296905,99.2382529 340.193569,99.8366926 340.045773,100.424755 C339.985942,100.675134 339.918632,100.900475 339.841351,101.123311 C339.796478,101.255178 339.751605,101.382871 339.706731,101.506391 C339.666844,101.614054 339.624464,101.721716 339.579591,101.824372 C339.479873,102.07475 339.375169,102.297587 339.260493,102.51792 C339.218113,102.603049 339.17324,102.690681 339.125874,102.768299 C338.939728,103.10855 338.730665,103.435638 338.500144,103.747279 C338.412891,103.862453 338.32813,103.977627 338.235891,104.090298 C338.026483,104.000162 337.822062,103.905018 337.620133,103.817385 C322.435577,97.0196063 323.524996,88.1962645 326.010467,82.9984048 C326.769469,81.405338 327.750764,79.9291048 328.924725,78.6142756 C335.406393,78.1986471 340.162941,82.8131247 340.162941,82.8131247 C338.801791,76.7289248 335.381464,73.0658859 331.46504,70.8750732 C331.335407,67.1319132 329.425807,64.280101 326.696028,62.1118223 C324.552091,60.4042403 321.902086,59.1072792 319.217179,58.138314 C318.511674,57.8879354 317.801184,57.6375568 317.095679,57.4347501 C315.512656,56.9540232 313.957056,56.5759515 312.52361,56.2830086 C310.213012,55.7953709 307.874163,55.4541825 305.520914,55.2614639 C306.28625,55.5819485 307.226092,56.3606259 307.954033,57.4347501 C308.650699,58.4430426 309.053058,59.6267503 309.115747,60.852418 C308.130705,59.8219672 307.028779,58.911049 305.832533,58.138314 C297.962291,52.9955376 286.898581,53.4687532 286.898581,53.4687532 C286.898581,53.4687532 294.207909,56.6009894 298.346205,62.1118223 C299.864412,64.1348814 300.956324,66.4759213 301.08845,69.0998889 C301.220576,71.7238566 300.998704,74.9762746 300.15858,78.9973549 C300.051383,79.4981121 299.941693,79.9988693 299.817046,80.5196567 C299.612224,81.3726581 299.345599,82.2094828 299.019302,83.0234427 C296.00034,90.5222817 288.160014,97.0947198 287.409636,103.842423 C287.374816,104.139181 287.354848,104.437506 287.349805,104.736275 L287.277509,104.658657 C287.220172,104.60107 287.16782,104.540979 287.115468,104.483392 C287.003285,104.36321 286.898581,104.233014 286.79637,104.115336 C286.694159,103.997658 286.616878,103.887491 286.527132,103.772317 C286.29834,103.459479 286.089351,103.132507 285.901401,102.793337 C285.856528,102.713216 285.811655,102.625583 285.766782,102.542958 C285.654599,102.322625 285.547402,102.089773 285.447684,101.849409 C285.405304,101.741747 285.362924,101.639091 285.323037,101.531429 C285.28315,101.423766 285.230798,101.28105 285.188418,101.148349 C285.111136,100.920505 285.041334,100.687653 284.981503,100.449793 C284.834574,99.8616592 284.732072,99.2632224 284.67487,98.6595861 C284.659912,98.531893 284.647448,98.4092075 284.639969,98.2639879 C284.63249,98.1187683 284.622518,97.923473 284.615039,97.7457042 C284.60756,97.5679354 284.615039,97.4177082 284.615039,97.244947 C284.615039,95.3345583 284.964052,93.0711358 285.804176,90.3995962 C285.406326,90.5997155 285.020878,90.8237953 284.649941,91.0706108 L284.330843,91.243372 C283.979337,91.4937506 283.582958,91.781686 283.154171,92.1272085 C283.032016,92.2248561 282.904876,92.3300151 282.785214,92.4376779 C282.665553,92.5453407 282.535919,92.6580111 282.406286,92.7731853 C282.276653,92.8883594 282.156991,93.0235639 282.019879,93.1412418 C279.80614,95.3020091 277.445316,98.8048057 277.487697,103.857446 C277.487697,103.857446 277.487697,103.857446 277.487697,103.857446 L277.487697,103.857446 L277.487697,103.857446 L277.487697,103.872468 C277.49735,104.745805 277.573188,105.617137 277.714555,106.47891 C277.751949,106.706754 277.791836,106.939606 277.841695,107.172458 C277.891554,107.40531 277.936427,107.625644 277.988779,107.850984 C278.123399,108.431863 278.290426,109.02526 278.487369,109.636184 C279.309038,112.070845 280.42508,114.395036 281.810471,116.556648 C282.059766,116.942231 282.309061,117.332822 282.558356,117.72842 L282.964707,118.324321 C283.238931,118.722423 283.530606,119.125533 283.82976,119.536153 C283.979337,119.741464 284.136393,119.946774 284.293449,120.157092 C284.555208,120.500111 284.792039,120.855649 285.041334,121.211186 C285.290629,121.566724 285.500036,121.927269 285.71443,122.295326 C286.553305,123.733036 287.202746,125.274064 287.646466,126.879758 C287.819785,127.47007 287.961258,128.069346 288.070267,128.674972 C288.105169,128.875275 288.135084,129.075578 288.162506,129.278385 C288.137577,129.220798 288.110155,129.16321 288.082732,129.105623 C288.061724,129.052483 288.037583,129.000646 288.010437,128.950389 C287.893268,128.70001 287.761142,128.437113 287.646466,128.199253 C287.604086,128.116628 287.559213,128.036507 287.516833,127.948874 C287.349805,127.633397 287.175298,127.335447 286.995806,127.050015 C286.876145,126.862231 286.758976,126.676951 286.634328,126.501686 C286.185593,125.855838 285.678182,125.253183 285.118615,124.701464 C284.998954,124.581282 284.86932,124.466108 284.757137,124.358445 C284.644955,124.250782 284.507842,124.145623 284.390674,124.045472 C284.273505,123.945321 284.141379,123.850177 284.029196,123.757537 C283.917013,123.664897 283.779901,123.579768 283.662733,123.507158 C283.545564,123.434548 283.425902,123.349419 283.306241,123.274306 L282.954735,123.063988 C282.835073,122.993882 282.720398,122.933791 282.605722,122.876204 L282.371385,122.758526 C282.13954,122.648359 281.912682,122.548208 281.695795,122.460575 C281.553697,122.405492 281.409106,122.355416 281.269501,122.307845 C281.129896,122.260273 281.000262,122.220212 280.870629,122.182655 L280.596405,122.107542 C280.464278,122.074992 280.34711,122.047451 280.217476,122.022413 C280.137702,122.00739 280.06042,121.989864 279.985632,121.979849 C279.644428,121.915917 279.298148,121.883233 278.951058,121.882201 C279.040804,122.300333 279.115593,122.70845 279.180409,123.109056 L279.24024,123.492135 C279.297877,124.181132 279.297877,124.87377 279.24024,125.562766 C279.218634,125.798122 279.191212,126.040989 279.157973,126.291368 C279.159209,126.302182 279.159209,126.313103 279.157973,126.323917 C279.108114,126.646906 279.048283,126.989924 278.971001,127.345462 C278.796166,128.14778 278.560305,128.935445 278.265497,129.701524 C277.709776,131.132139 276.989408,132.492585 276.119067,133.755154 C276.119067,133.54734 276.099124,133.337022 276.086659,133.129207 C278.597059,106.619122 272.61398,90.5348006 259.08225,61.448319 C248.424891,38.543685 260.827315,29.9832408 261.101539,29.8004644 C260.63785,29.9206461 234.464373,36.9838264 243.753103,58.4062191 C218.594256,26.9611711 270.761719,8.01001514 270.761719,8.01001514 C270.761719,8.01001514 212.177404,11.7932357 216.166123,50.3991116 C216.213489,50.6294599 216.258363,50.862312 216.303236,51.0876527 C216.740333,53.2909844 217.24474,55.3899916 217.816456,57.3846744 C219.613149,63.7458712 222.255365,69.8348133 225.67174,75.4870469 C229.276545,81.4085008 232.432619,84.5257143 232.617098,84.7109944 C227.951766,81.3323576 223.846138,77.2359215 220.451504,72.5726401 C216.848818,67.5833968 214.004062,62.0843232 212.010377,56.2554669 C211.381913,54.7736665 210.830233,53.2601899 210.357551,51.7211106 C210.106594,50.9115531 209.88306,50.1220259 209.686948,49.352529 C207.847151,42.1140838 208.275938,36.8085613 208.275938,36.8085613 C208.275938,36.8085613 183.740329,73.4990409 208.575092,90.8903382 C209.093626,91.2592293 209.635427,91.6156015 210.200495,91.9594548 C229.067137,103.554488 232.258113,121.37894 232.352845,121.93478 C232.163381,121.474084 227.885479,107.733306 210.554494,99.5233922 C210.444804,99.4708127 210.335114,99.4157294 210.222932,99.3656537 C191.371247,90.6024028 186.071236,70.4894902 186.071236,70.4894902 C186.071236,70.4894902 186.071236,70.5796265 186.058772,70.7573953 C186.046307,70.9351641 186.041321,71.2581524 186.031349,71.6637658 C186.031349,71.9817466 186.016392,72.3648258 186.011406,72.8004846 C185.951575,77.1019889 186.066251,86.8592428 187.876132,97.2048864 C187.987436,97.8598157 188.145735,98.5058069 188.349792,99.1378092 C188.546054,99.772437 188.788525,100.391708 189.075241,100.990611 C190.895094,104.821403 193.796887,109.298173 198.406351,113.897627 C199.176672,114.66629 199.989374,115.434952 200.854427,116.208622 C201.143609,116.464008 201.437777,116.721063 201.736931,116.979788 C202.185662,117.360363 202.649351,117.74845 203.127997,118.139041 C203.443771,118.394427 203.766192,118.651482 204.095262,118.910207 C204.259796,119.035396 204.426824,119.160586 204.593852,119.29579 C205.092442,119.681373 205.610975,120.064452 206.141973,120.450035 L206.677957,120.833115 C207.216435,121.218698 207.769869,121.599273 208.340755,121.979849 C208.71719,122.230227 209.103597,122.480606 209.49499,122.730984 L209.49499,122.730984 C210.477213,123.364442 211.48935,123.982877 212.558825,124.618839 C213.446315,125.139626 214.368707,125.65791 215.318521,126.17369 C216.90736,127.029985 218.582623,127.873761 220.344307,128.705018 C218.160072,128.568695 215.987748,128.281753 213.842694,127.846219 C209.355385,126.977405 203.142955,125.249793 197.065144,121.837133 C201.33806,135.495285 211.063056,144.463847 219.441859,149.939626 L219.441859,149.9221 C219.44947,149.934078 219.456139,149.946635 219.461803,149.959657 C227.242298,155.029823 233.856093,157.092943 233.856093,157.092943 C230.864554,169.626896 227.501565,173.022029 227.399354,173.117173 C238.964147,168.422574 246.567643,161.895204 251.533599,155.693327 C254.156736,152.435094 256.349583,148.850021 258.057648,145.027198 C258.090056,144.952085 258.122464,144.881979 258.154873,144.811873 C258.154873,144.791843 258.179802,144.771812 258.192267,144.751782 C258.282013,144.594043 258.369266,144.438809 258.454027,144.28107 C258.655956,143.905502 258.84542,143.529934 259.019926,143.144351 C259.104687,142.959071 259.186954,142.76628 259.269221,142.578496 C259.329052,142.433276 259.391376,142.288057 259.446221,142.142837 C259.461178,142.102776 259.476136,142.062716 259.493587,142.020151 C259.511037,141.977587 259.543446,141.889955 259.563389,141.82736 C259.608262,141.712186 259.650642,141.597012 259.69053,141.479334 L259.825149,141.066209 C259.877501,140.918486 259.924867,140.763251 259.967247,140.61052 C260.009627,140.457789 260.034557,140.360141 260.069458,140.242463 C260.169176,139.874407 260.258922,139.491328 260.331218,139.125775 C260.346175,139.055669 260.361133,138.99057 260.371105,138.920464 C260.381077,138.850358 260.40102,138.775245 260.413485,138.700131 C260.445893,138.522362 260.473316,138.344594 260.498245,138.166825 C260.518189,138.029117 260.538133,137.888905 260.55309,137.746189 C260.568048,137.603473 260.59547,137.410681 260.605442,137.245432 C260.605442,137.215386 260.605442,137.200363 260.605442,137.200363 C260.625386,136.949985 260.645329,136.717133 260.660287,136.471762 C260.97098,137.20425 261.23168,137.957125 261.44058,138.725169 C261.92107,140.398559 262.137259,142.137285 262.081268,143.877961 C262.081268,143.988127 262.081268,144.098294 262.063818,144.20846 C262.046367,144.318627 262.04886,144.458839 262.041381,144.594043 C262.016452,144.927047 261.979057,145.255043 261.931691,145.580535 C261.931691,145.68319 261.906762,145.778334 261.889311,145.883493 C261.871861,145.988652 261.846931,146.133872 261.824494,146.269076 C261.807044,146.354205 261.792086,146.439334 261.772143,146.519455 C261.752199,146.599576 261.734748,146.719758 261.712312,146.817405 C261.682396,146.962625 261.652481,147.105341 261.615087,147.248057 C261.577692,147.390772 261.545284,147.528481 261.505397,147.671196 L261.505397,147.671196 C261.468003,147.808905 261.430608,147.949117 261.388228,148.086825 C261.345848,148.224533 261.300975,148.367249 261.256102,148.507461 C261.221201,148.607612 261.186299,148.715275 261.151398,148.815427 C261.116497,148.915578 261.07661,149.030752 261.036722,149.135911 C260.996835,149.24107 260.964427,149.331206 260.927033,149.42635 C260.889638,149.521494 260.842272,149.64418 260.797399,149.749339 C260.752526,149.854498 260.690202,149.999717 260.632865,150.134922 C260.632865,150.134922 260.632865,150.157456 260.6204,150.167471 C260.563062,150.300172 260.503231,150.430369 260.438415,150.560565 C260.373598,150.690762 260.346175,150.760868 260.293823,150.86102 C259.861536,151.733805 259.361396,152.570995 258.798054,153.364806 C258.738223,153.452438 258.670913,153.547582 258.606097,153.637718 C258.54128,153.727855 258.429097,153.888097 258.331872,154.000767 C258.234647,154.113438 258.187281,154.193559 258.11,154.291206 C257.798381,154.684301 257.466819,155.064876 257.11282,155.442948 C256.925849,155.643251 256.74137,155.838546 256.54692,156.036345 L256.524484,156.056376 L256.579329,156.056376 C257.753508,156.09894 261.024258,156.016315 263.489785,154.191055 L263.699193,154.033317 L263.699193,154.033317 C263.654319,154.095911 263.175673,154.839536 263.552109,156.151519 C263.577038,156.236648 263.60446,156.321777 263.636869,156.401898 L263.636869,156.401898 C263.656812,156.461989 263.681742,156.519576 263.701685,156.579667 L263.701685,156.579667 L263.78146,156.764947 C263.808882,156.827542 263.838798,156.895144 263.871206,156.960242 C263.903614,157.025341 263.970924,157.158041 264.030755,157.258193 L264.030755,157.258193 C264.106572,157.402631 264.189782,157.54303 264.28005,157.678829 L264.28005,157.678829 C264.347359,157.783988 264.424641,157.894154 264.504415,158.001817 L264.591668,158.121999 C264.701358,158.272226 264.826006,158.427461 264.958132,158.585199 C265.030428,158.665321 265.105216,158.750449 265.175019,158.835578 C265.244821,158.920707 265.322103,158.998324 265.399384,159.085957 C265.519046,159.212815 265.646186,159.343012 265.780805,159.476547 C265.955312,159.649308 266.137297,159.82207 266.339226,159.997335 L266.339226,159.997335 L266.63838,160.247713 L267.161899,160.680868 C267.276575,160.771005 267.391251,160.861141 267.510912,160.951277 C267.705362,161.099001 267.904798,161.254235 268.119192,161.404462 C268.245502,161.499606 268.377628,161.59475 268.515571,161.689894 C268.804753,161.892701 269.1064,162.093004 269.425498,162.303322 L269.447934,162.303322 C269.447934,162.303322 269.447934,162.303322 269.447934,162.303322 C269.53768,162.355901 269.62992,162.405977 269.722159,162.456052 C270.108566,162.671378 270.49248,162.889207 270.868915,163.107037 L271.367505,163.402484 C271.933405,163.73048 272.489333,164.063483 273.030303,164.403998 L273.047753,164.403998 L273.546343,164.721979 L273.810596,164.882221 C273.895356,164.939808 273.982609,164.994891 274.059891,165.049975 C274.23689,165.157638 274.411397,165.267804 274.585903,165.377971 C274.76041,165.488137 274.989761,165.643372 275.194183,165.773569 L275.869772,166.216739 L276.737319,166.797617 L277.263331,167.160666 C278.38682,167.933502 279.454634,168.712179 280.466771,169.496699 C280.561503,169.571812 280.651249,169.644422 280.745982,169.714528 C280.840714,169.784634 280.935446,169.857244 281.025192,169.929854 C281.20967,170.075073 281.391656,170.222797 281.571148,170.368016 C281.618514,170.405573 281.660894,170.440626 281.705767,170.470671 L282.112118,170.801171 L282.376371,171.021504 L282.376371,171.021504 C282.972186,168.662938 280.785869,165.485634 280.631306,165.262797 L281.144854,165.68844 C282.506004,166.830167 283.697634,167.924321 284.74218,168.978415 C289.127278,173.375063 290.907244,176.895386 291.630199,179.083695 C292.156212,180.683614 292.128789,181.569955 292.128789,181.569955 C291.131609,180.090217 288.7658,179.44424 286.567019,179.173831 C287.088045,179.394165 287.718761,179.894922 288.389365,180.633539 C289.605924,181.97056 290.964582,184.081252 292.088902,186.70522 C293.699347,190.460899 294.816189,195.288198 294.307627,200.383402 C294.287684,200.33583 294.260261,200.280747 294.22536,200.208137 C294.190459,200.135528 294.18298,200.125512 294.163036,200.07794 C294.11567,199.992812 294.068304,199.895164 294.008473,199.790005 C293.948642,199.684846 293.898783,199.582191 293.831474,199.464513 C293.831474,199.444483 293.809037,199.424452 293.799065,199.404422 L293.584672,199.036365 C293.571568,199.019472 293.560676,199.00096 293.552263,198.981282 L293.402686,198.743423 C293.350335,198.658294 293.297983,198.573165 293.243138,198.493044 L293.068631,198.222635 C292.951463,198.037355 292.819336,197.847067 292.679731,197.64426 L292.462844,197.336295 C292.31576,197.133488 292.158705,196.918163 291.986691,196.695326 C291.901931,196.580151 291.814678,196.469985 291.737396,196.352307 C291.560397,196.126966 291.36844,195.889107 291.169004,195.651247 L290.859878,195.28319 C290.647977,195.032812 290.426105,194.782433 290.189274,194.532055 C289.725586,194.031297 289.212869,193.508841 288.651125,192.964685 C288.389365,192.714306 288.117633,192.463927 287.83593,192.213549 L287.773606,192.155962 L287.746184,192.12842 C287.601593,192.003231 287.454509,191.878041 287.304932,191.745341 C287.155355,191.61264 287.030707,191.509985 286.886116,191.389803 C286.387526,190.976678 285.8665,190.56105 285.313065,190.13791 C285.218333,190.0653 285.126094,190.000202 285.031362,189.9326 C284.749659,189.722282 284.457983,189.519475 284.161322,189.311661 L283.862169,189.108854 C283.523127,188.878506 283.174114,188.653165 282.81513,188.425321 C282.456145,188.197476 282.087188,187.969631 281.705767,187.749298 C280.957882,187.306128 280.147674,186.867966 279.305057,186.444826 C279.110607,186.344674 278.913664,186.249531 278.711735,186.151883 C278.46244,186.029197 278.195694,185.901504 277.928949,185.781323 C277.662203,185.661141 277.395457,185.530944 277.123726,185.420777 C276.851994,185.310611 276.575277,185.170399 276.296067,185.067744 C276.016856,184.965088 275.73266,184.837395 275.440985,184.724725 C275.311352,184.672145 275.179225,184.617062 275.044606,184.56949 C274.560974,184.38421 274.047426,184.201434 273.548836,184.031176 C273.421696,183.983604 273.299541,183.938536 273.157443,183.895972 L272.628938,183.720707 C272.349727,183.628067 272.070517,183.540434 271.783828,183.452802 C268.605578,182.494326 265.35357,181.802574 262.061325,181.384674 L262.086254,181.384674 L262.101212,181.384674 L262.180986,181.41472 L262.198437,181.41472 L262.325577,181.469803 C262.400366,181.497345 262.487619,181.532398 262.574872,181.574962 L262.574872,181.574962 C262.679576,181.62003 262.789266,181.667602 262.916406,181.727693 L263.208081,181.860394 C265.861864,183.130838 268.347426,184.728916 270.607156,186.617587 C270.706874,186.70522 270.814071,186.790348 270.916281,186.867966 C271.217928,187.118344 271.522068,187.396265 271.823715,187.676689 C272.125362,187.957113 272.427009,188.242544 272.726163,188.540495 C272.818402,188.628127 272.905655,188.718264 272.995401,188.813407 C273.259654,189.063786 273.518921,189.351721 273.780681,189.639657 C273.885384,189.749823 273.987595,189.864997 274.087313,189.982675 C274.393115,190.324859 274.6931,190.678728 274.987268,191.044281 C275.181718,191.294659 275.378661,191.545038 275.565632,191.795416 C275.854815,192.175992 276.131532,192.569086 276.403263,192.9747 L276.652558,193.34526 L276.727347,193.460434 C276.8146,193.593135 276.896867,193.725835 276.976642,193.858536 C277.330641,194.426896 277.664696,195.020293 277.973822,195.63372 C278.431823,196.52232 278.812983,197.448787 279.1131,198.402908 C279.128057,198.457991 279.148001,198.51057 279.162959,198.56315 C279.177916,198.615729 279.182902,198.615729 279.187888,198.643271 C279.197748,198.669067 279.204445,198.695971 279.207832,198.723392 C279.222789,198.770964 279.24024,198.823544 279.252705,198.871116 C279.26517,198.918688 279.290099,199.001312 279.305057,199.066411 C279.320014,199.131509 279.357409,199.231661 279.377352,199.31679 C279.397296,199.401918 279.429704,199.524604 279.457127,199.632267 C279.504493,199.830066 279.551859,200.030369 279.594239,200.228168 C279.619168,200.333327 279.639112,200.438486 279.656563,200.541141 C279.776224,201.134538 279.870956,201.725432 279.948238,202.316325 C279.965688,202.436507 279.97566,202.551681 279.990618,202.669359 C280.065406,203.290298 280.122744,203.921252 280.17011,204.544695 C280.187561,204.702433 280.19504,204.857668 280.207504,205.015406 C280.219969,205.173145 280.232434,205.330883 280.242406,205.486118 C280.252378,205.641353 280.264842,205.801595 280.274814,205.964341 C280.314701,206.502655 280.349603,207.040969 280.38949,207.586795 C280.411926,207.837173 280.43187,208.102574 280.456799,208.357961 C280.456799,208.418051 280.456799,208.475639 280.469264,208.530722 C280.501673,208.848703 280.531588,209.166683 280.563996,209.484664 C280.606376,209.86524 280.653742,210.248319 280.708587,210.633902 C280.763432,211.019485 280.82077,211.405068 280.895559,211.795659 C280.940432,212.06106 280.992784,212.321454 281.047628,212.584351 C281.090009,212.779647 281.132389,212.974942 281.177262,213.172741 C281.202191,213.25787 281.217149,213.337991 281.242079,213.42312 C281.331825,213.796184 281.431543,214.174255 281.543725,214.54732 C281.58112,214.672509 281.621007,214.797698 281.660894,214.927895 C281.748147,215.203311 281.842879,215.486239 281.942597,215.771671 C282.002428,215.934417 282.067245,216.099667 282.127076,216.272428 L282.127076,216.272428 C282.194385,216.450197 282.266681,216.627966 282.338976,216.805734 L282.338976,216.805734 C282.448666,217.071136 282.560849,217.336537 282.683003,217.604442 C282.684492,217.613562 282.684492,217.622864 282.683003,217.631984 C282.792693,217.86734 282.907369,218.107703 283.024537,218.345563 C283.141706,218.583423 283.236438,218.766199 283.351114,218.976517 C283.39848,219.069157 283.448339,219.161797 283.498198,219.251933 C283.650268,219.529854 283.809817,219.815285 283.98183,220.095709 C284.320871,220.661565 284.692321,221.239939 285.101164,221.820818 C285.235784,222.016113 285.375389,222.211408 285.522473,222.409207 L285.796697,222.779768 C285.983669,223.030146 286.178119,223.280525 286.377555,223.530904 L286.681694,223.908975 C286.768948,224.009127 286.851215,224.109278 286.930989,224.211933 L287.392185,224.750247 C287.706297,225.108289 288.032873,225.468834 288.389365,225.839394 C288.561378,226.019667 288.730899,226.202443 288.915377,226.390227 C289.015095,226.495386 289.117306,226.603049 289.22201,226.708208 C289.433911,226.923534 289.650797,227.131348 289.870177,227.354185 L290.510865,227.970116 L290.897272,228.328157 L291.024413,228.445835 L291.363454,228.756305 C291.572861,228.941585 291.779776,229.131873 291.999156,229.322161 C291.939325,229.104331 290.453527,223.493347 292.378084,217.922423 L292.378084,217.922423 L292.435422,217.952468 C292.439435,217.95401 292.443874,217.95401 292.447887,217.952468 C292.455096,217.961471 292.464561,217.968384 292.475309,217.972499 L292.487774,217.972499 L292.532647,218.00004 C292.569349,218.02735 292.607642,218.052432 292.647323,218.075154 L292.667266,218.090177 L292.876674,218.235396 L293.013786,218.335548 L293.163363,218.448218 C293.218208,218.488279 293.265574,218.528339 293.320419,218.570904 L293.504897,218.723635 L293.669432,218.863847 L293.789094,218.969006 C293.871361,219.041615 293.953628,219.119233 294.038389,219.204361 C294.123149,219.28949 294.160543,219.329551 294.22536,219.397153 C294.274387,219.443957 294.320983,219.493263 294.364965,219.544876 C294.454711,219.635013 294.541964,219.730156 294.629218,219.835315 C294.755036,219.976564 294.873206,220.124501 294.983216,220.278486 C295.04554,220.358607 295.102878,220.436224 295.160216,220.528864 C295.170458,220.537504 295.178206,220.548744 295.182652,220.561413 C295.299821,220.726663 295.407018,220.899425 295.514215,221.079697 C295.571553,221.172337 295.621412,221.264977 295.671271,221.362625 L295.820848,221.665583 C295.865548,221.752286 295.904684,221.84177 295.938016,221.933488 C295.948566,221.944494 295.955523,221.958469 295.95796,221.973549 C297.067322,224.284543 297.633222,227.6947 296.027762,232.449389 L295.673763,233.130419 L295.713651,233.130419 C295.885664,233.067824 296.052692,232.997718 296.224705,232.925109 C296.396719,232.852499 296.563746,232.782393 296.723295,232.702272 L296.723295,232.702272 L297.239336,232.451893 C298.942473,231.646148 300.511563,230.581184 301.89118,229.294619 L302.140475,229.061767 L302.140475,229.061767 C305.343915,233.636184 309.838703,242.121514 312.396469,256 C312.396469,256 312.396469,256 312.396469,255.982473 C314.959221,242.108995 319.451516,233.631176 322.652464,229.059263 L322.652464,229.059263 L322.901759,229.289611 C324.283534,230.573443 325.852185,231.638109 327.553602,232.446885 L328.069643,232.697264 L328.069643,232.697264 C328.239163,232.777385 328.411177,232.849995 328.580698,232.920101 C328.750218,232.990207 328.922232,233.057809 329.079287,233.125411 L329.119175,233.125411 L328.765176,232.444382 C327.162209,227.687188 327.72063,224.289551 328.829993,221.978556 C328.829993,221.978556 328.829993,221.978556 328.829993,221.978556 C328.872373,221.875901 328.919739,221.77575 328.967105,221.673094 C329.014471,221.570439 329.06433,221.470288 329.119175,221.370136 C329.17402,221.269985 329.221386,221.179849 329.278723,221.087208 C329.379634,220.90898 329.489464,220.735997 329.607793,220.568925 C329.613204,220.556775 329.620812,220.545739 329.630229,220.536376 C329.682581,220.453751 329.744905,220.376133 329.807229,220.285997 C329.916467,220.131425 330.034672,219.983446 330.161228,219.842827 C330.248481,219.740172 330.335734,219.642524 330.410523,219.552388 C330.455396,219.499808 330.505255,219.449732 330.550128,219.404664 L330.739592,219.211873 C330.824352,219.129248 330.911605,219.049127 330.988887,218.976517 C331.028774,218.941464 331.068661,218.903907 331.108548,218.871358 C331.148436,218.838809 331.220731,218.771206 331.275576,218.728642 C331.395238,218.625987 331.50742,218.533347 331.612124,218.455729 L331.761701,218.343059 C331.809067,218.302998 331.856433,218.272953 331.898813,218.242908 C331.978588,218.185321 332.050883,218.137749 332.110714,218.097688 C332.110714,218.097688 332.110714,218.097688 332.133151,218.082665 L332.230376,218.017567 C332.252939,218.000899 332.277168,217.986634 332.302671,217.975003 C332.313028,217.970191 332.322345,217.963386 332.330094,217.954972 L332.330094,217.954972 L332.387432,217.924927 C334.311989,223.495851 332.828684,229.106835 332.768853,229.324664 C332.983246,229.134377 333.195147,228.946593 333.402062,228.758809 L333.741103,228.448339 C333.91561,228.290601 334.087623,228.130358 334.254651,227.97262 C334.476523,227.762302 334.690917,227.556991 334.895339,227.356689 C335.099761,227.156386 335.331605,226.926037 335.543506,226.710712 C335.64821,226.605553 335.752913,226.49789 335.852631,226.392731 L336.381137,225.841898 C336.722671,225.471338 337.05174,225.110793 337.378317,224.752751 L337.837019,224.214437 L338.086314,223.911479 C338.188525,223.78629 338.288243,223.6611 338.392947,223.533407 C338.58989,223.283029 338.786833,223.03265 338.971311,222.782272 C339.066043,222.659586 339.158283,222.531893 339.245536,222.411711 C339.395113,222.213912 339.534718,222.018617 339.669337,221.823322 C340.075688,221.242443 340.44963,220.664069 340.786179,220.098213 C340.955699,219.817789 341.115248,219.532357 341.269811,219.254437 C341.322163,219.164301 341.369529,219.071661 341.419388,218.979021 C341.531571,218.768703 341.638767,218.558385 341.743471,218.348067 C341.848175,218.137749 341.975316,217.869844 342.087498,217.634488 C342.087498,217.634488 342.087498,217.616961 342.087498,217.606946 C342.209653,217.339041 342.321836,217.07364 342.434018,216.808238 C342.508807,216.630469 342.576116,216.452701 342.645919,216.274932 L342.645919,216.274932 C342.708243,216.107178 342.770566,215.944432 342.827904,215.774175 C342.927622,215.491247 343.022354,215.208319 343.114593,214.930399 L343.229269,214.549823 C343.341452,214.174255 343.44117,213.798688 343.530916,213.425623 C343.553353,213.337991 343.570803,213.25787 343.59324,213.175245 C343.638113,212.977446 343.682986,212.78215 343.725366,212.586855 C343.777718,212.336477 343.83007,212.063564 343.874943,211.798163 C343.947239,211.407572 344.007069,211.019485 344.061914,210.636406 C344.116759,210.253327 344.164125,209.867744 344.206505,209.487168 C344.238914,209.169187 344.271322,208.851206 344.301237,208.533226 C344.301237,208.475639 344.301237,208.418051 344.316195,208.360464 C344.341125,208.110086 344.361068,207.859707 344.381012,207.589298 C344.420899,207.040969 344.460786,206.502655 344.495688,205.966845 C344.495688,205.804099 344.518124,205.648864 344.530589,205.488622 C344.543054,205.32838 344.553025,205.170641 344.562997,205.01791 L344.600391,204.547198 C344.65025,203.918748 344.707588,203.295305 344.779884,202.671863 L344.824757,202.318829 C344.902038,201.727935 344.994277,201.137042 345.113939,200.543645 C345.13139,200.440989 345.151333,200.33583 345.178756,200.230671 C345.221136,200.032872 345.266009,199.832569 345.315868,199.63477 C345.340797,199.527108 345.365727,199.424452 345.395642,199.319293 C345.425558,199.214134 345.440515,199.15154 345.465445,199.068915 C345.490374,198.98629 345.497853,198.941222 345.52029,198.873619 C345.542726,198.806017 345.550205,198.773468 345.56267,198.725896 C345.575135,198.678324 345.56267,198.668309 345.582614,198.645775 C345.602557,198.623241 345.600064,198.590692 345.610036,198.565654 C345.620008,198.540616 345.642444,198.460495 345.657402,198.405411 C345.959688,197.452085 346.340774,196.525799 346.79668,195.636224 C347.113285,195.022797 347.44734,194.429399 347.79386,193.86104 C347.876127,193.728339 347.960887,193.595639 348.043155,193.462938 C348.068084,193.422877 348.093014,193.387824 348.120436,193.347764 C348.200211,193.222574 348.279985,193.097385 348.369731,192.977203 C348.641463,192.57159 348.91818,192.178496 349.207362,191.79792 C349.396826,191.547542 349.593769,191.297163 349.788219,191.046784 C350.085711,190.681232 350.384865,190.327363 350.685681,189.985179 C350.785399,189.867501 350.892596,189.752327 350.994807,189.642161 C351.244102,189.354225 351.513341,189.078809 351.780086,188.815911 C351.822407,188.76756 351.867348,188.721588 351.914705,188.678203 C351.957086,188.630631 352.001959,188.588067 352.049325,188.542998 C352.348479,188.245048 352.647633,187.954609 352.949279,187.679192 C353.250926,187.403776 353.555066,187.128359 353.859206,186.870469 C353.961417,186.785341 354.066121,186.700212 354.165839,186.620091 C356.427136,184.731089 358.914388,183.133001 361.569899,181.862898 L361.859081,181.730197 C361.983729,181.670106 362.108376,181.622534 362.198122,181.577466 L362.198122,181.577466 L362.447417,181.472307 L362.577051,181.417224 L362.594501,181.417224 L362.689233,181.384674 C362.689233,181.384674 362.689233,181.384674 362.689233,181.384674 C359.396897,181.800784 356.14481,182.491716 352.96673,183.450298 C352.677548,183.53793 352.398338,183.625563 352.12162,183.718203 L351.590622,183.893468 C351.458496,183.936032 351.341327,183.9811 351.199229,184.028672 C350.690667,184.195591 350.192077,184.375029 349.703459,184.566986 C349.56884,184.614558 349.439206,184.669642 349.30708,184.722221 C349.015405,184.829884 348.736195,184.947562 348.454491,185.06524 C348.172788,185.182918 347.898564,185.298092 347.624339,185.418274 C347.350115,185.538455 347.085862,185.668652 346.819117,185.778819 C346.552371,185.888985 346.29809,186.029197 346.038823,186.149379 C345.834401,186.247027 345.637458,186.342171 345.443008,186.442322 C344.600391,186.865462 343.800155,187.303624 343.042298,187.746795 C342.66337,187.970466 342.294413,188.195807 341.935428,188.422817 C341.576444,188.650661 341.227431,188.876002 340.88839,189.10635 L340.586743,189.309157 C340.290082,189.516971 339.998407,189.719778 339.716703,189.930096 C339.621971,189.997698 339.532225,190.062797 339.437493,190.135406 C338.884058,190.546027 338.358046,190.961656 337.864442,191.387299 C337.717358,191.507481 337.580245,191.637678 337.443133,191.742837 C337.306021,191.847996 337.146472,191.993216 337.004374,192.125916 L336.912135,192.211045 C336.630432,192.461424 336.3587,192.711802 336.099433,192.962181 C335.536027,193.497991 335.02331,194.020448 334.561284,194.529551 C334.311989,194.779929 334.100088,195.030308 333.888187,195.280687 L333.581554,195.648743 C333.382118,195.899122 333.190161,196.124462 333.013162,196.349803 L332.748909,196.692822 C332.581882,196.913155 332.424826,197.128481 332.272756,197.333791 L332.055869,197.641757 C331.916264,197.844563 331.786631,198.034851 331.666969,198.220131 C331.607138,198.312771 331.5498,198.400404 331.494956,198.49054 C331.440111,198.580676 331.385266,198.660798 331.332914,198.740919 L331.18583,198.978778 C331.17567,198.998041 331.164,199.01646 331.150929,199.033862 C331.07614,199.161555 331.006337,199.28424 330.936535,199.401918 L330.90662,199.462009 C330.83931,199.579687 330.781972,199.68735 330.72962,199.787501 C330.677268,199.887653 330.617437,199.990308 330.575057,200.075437 C330.555114,200.123009 330.532677,200.165573 330.512733,200.205634 C330.49279,200.245694 330.447917,200.333327 330.427973,200.380899 C330.40803,200.42847 330.375621,200.503584 330.368142,200.508592 L330.31579,200.40844 L330.427973,200.380899 L330.427973,200.380899 C329.929383,195.293205 331.036253,190.475921 332.644205,186.715235 L332.644205,186.715235 C333.768526,184.091267 335.137155,181.980575 336.343742,180.643554 C336.64364,180.311767 336.967794,180.002942 337.3135,179.719657 C337.572268,179.503159 337.859079,179.322913 338.166089,179.183847 C335.967307,179.454255 333.596512,180.100232 332.604318,181.57997 C332.604318,181.57997 332.566924,180.706148 333.080472,179.131267 C333.793455,176.945462 335.573421,173.41262 339.983449,168.98843 C341.027995,167.93684 342.227103,166.840182 343.580775,165.698455 C343.750296,165.553236 343.922309,165.41052 344.096816,165.267804 L344.096816,165.267804 C343.944746,165.490641 341.758429,168.670449 342.351751,171.026512 L342.351751,171.026512 L342.618497,170.808682 C342.70575,170.733569 342.797989,170.663463 342.892721,170.588349 C342.935101,170.553296 342.974988,170.51574 343.022354,170.478183 C343.24672,170.29791 343.471085,170.117638 343.70293,169.937365 C343.884915,169.794649 344.074379,169.644422 344.263843,169.50421 C344.356082,169.429096 344.448321,169.35899 344.548039,169.286381 C344.647757,169.213771 344.737504,169.143665 344.829743,169.071055 C345.024193,168.925835 345.21615,168.775608 345.415586,168.632892 C345.510318,168.560283 345.607543,168.49268 345.704768,168.420071 C345.904204,168.274851 346.10364,168.124624 346.310555,167.979404 L346.594751,167.779101 L347.232946,167.325916 C347.302749,167.27584 347.375044,167.230772 347.442354,167.180697 L347.467283,167.180697 C347.639297,167.060515 347.813803,166.930318 347.990803,166.817648 C348.688829,166.341928 349.404305,165.871217 350.144711,165.398001 L350.92999,164.897244 L351.702805,164.419021 L351.702805,164.419021 C351.894762,164.30635 352.07924,164.188672 352.268704,164.078506 C352.458168,163.968339 352.607745,163.873195 352.779759,163.773044 C352.951772,163.672892 353.178631,163.522665 353.383053,163.42001 C353.587475,163.317355 353.719601,163.219707 353.881643,163.124563 C354.255585,162.907569 354.637006,162.690574 355.025906,162.473579 L355.305117,162.313337 C355.63751,162.103019 355.949129,161.895204 356.239973,161.689894 L356.636352,161.404462 C356.850745,161.254235 357.050181,161.101504 357.244632,160.951277 C357.364293,160.861141 357.478969,160.768501 357.591152,160.680868 C357.77563,160.533145 357.950136,160.390429 358.114671,160.247713 L358.413825,159.997335 C358.613261,159.82207 358.795246,159.646805 358.969753,159.476547 C359.106865,159.34635 359.236498,159.21365 359.353667,159.085957 L359.575539,158.835578 C359.652821,158.752953 359.725116,158.667824 359.792426,158.585199 C359.924552,158.427461 360.041721,158.272226 360.161383,158.121999 C360.192101,158.083751 360.22041,158.043612 360.246143,158.001817 C360.325917,157.894154 360.403199,157.783988 360.473001,157.678829 L360.473001,157.678829 C360.56524,157.531106 360.650001,157.393397 360.722296,157.258193 L360.722296,157.258193 C360.782127,157.158041 360.831986,157.055386 360.881845,156.960242 C360.91607,156.897586 360.945247,156.832279 360.969098,156.764947 C360.999014,156.702352 361.02145,156.642261 361.048873,156.579667 L361.048873,156.579667 C361.068816,156.519576 361.096239,156.461989 361.116182,156.401898 L361.116182,156.401898 C361.146098,156.311762 361.176013,156.226633 361.19845,156.151519 C361.589843,154.776941 361.04638,154.028309 361.04638,154.028309 L361.04638,154.028309 L361.253294,154.183544 C363.723807,156.008804 366.987078,156.091429 368.168736,156.048864 L368.223581,156.048864 L368.201145,156.02633 C368.006695,155.831035 367.817231,155.633236 367.635245,155.432933 C367.288725,155.057365 366.957163,154.681797 366.638065,154.281191 C366.560784,154.183544 366.485996,154.0884 366.4137,153.990752 L366.139476,153.627703 C366.074659,153.537567 366.009842,153.449934 365.950011,153.354791 C365.38673,152.56094 364.886593,151.723755 364.454242,150.851005 C364.404383,150.750853 364.354524,150.650702 364.309651,150.55055 C364.264777,150.450399 364.187496,150.300172 364.130158,150.157456 L364.1152,150.124907 C364.057863,149.997214 364.005511,149.874528 363.953159,149.739324 L363.821032,149.416335 C363.783638,149.321191 363.746244,149.22104 363.716329,149.125896 C363.686413,149.030752 363.636554,148.91057 363.59916,148.805411 C363.561766,148.700252 363.526864,148.600101 363.496949,148.497446 C363.467034,148.394791 363.40471,148.217022 363.36233,148.07681 C363.31995,147.936598 363.282555,147.801393 363.245161,147.661181 L363.245161,147.661181 C363.205274,147.518465 363.16788,147.378253 363.132978,147.238041 C363.098077,147.097829 363.068162,146.95261 363.035753,146.80739 L363.035753,146.762322 C362.998359,146.592065 362.965951,146.426815 362.933542,146.261565 C362.901134,146.096315 362.876205,145.926058 362.846289,145.760808 C362.846289,145.698213 362.833824,145.635618 362.823853,145.575528 C362.77898,145.250035 362.741585,144.922039 362.716656,144.589036 C362.716656,144.461343 362.699205,144.338657 362.691726,144.203453 C362.684247,144.068248 362.691726,143.98312 362.691726,143.872953 C362.632611,142.131649 362.847144,140.391869 363.327428,138.717658 C363.539246,137.950211 363.800731,137.197474 364.110215,136.46425 C364.127665,136.714629 364.145116,136.965008 364.165059,137.192852 C364.164061,137.207858 364.164061,137.222914 364.165059,137.23792 C364.165059,137.410681 364.197468,137.578435 364.219904,137.738677 C364.242341,137.89892 364.252313,138.021605 364.274749,138.159313 C364.299679,138.337082 364.324608,138.514851 364.35951,138.69262 C364.35951,138.767733 364.384439,138.842847 364.399397,138.912953 C364.414354,138.983059 364.424326,139.048157 364.439284,139.118264 C364.514072,139.496335 364.601326,139.869399 364.688579,140.234952 L364.793283,140.603009 C364.835663,140.75574 364.880536,140.910974 364.935381,141.058698 C364.990226,141.206421 365.022634,141.336618 365.07,141.471822 C365.117366,141.607027 365.152268,141.704674 365.194648,141.819849 C365.215438,141.885315 365.239568,141.949664 365.266943,142.01264 C365.284394,142.055204 365.296859,142.095265 365.311816,142.135326 C365.369154,142.280545 365.428985,142.425765 365.488816,142.570984 C365.56859,142.758768 365.650857,142.95156 365.738111,143.13684 C365.912617,143.522423 366.099588,143.887976 366.301517,144.273559 C366.38877,144.431297 366.473531,144.586532 366.56577,144.744271 C366.56577,144.764301 366.590699,144.784331 366.603164,144.804361 L366.603164,144.804361 C366.63308,144.876971 366.662995,144.944573 366.697896,145.017183 C368.404996,148.840519 370.597916,152.425712 373.221945,155.683311 C378.185408,161.885189 385.786411,168.410056 397.353697,173.107158 C397.251486,173.004503 393.900962,169.601858 390.896958,157.082928 C390.896958,157.082928 397.500781,155.024816 405.271305,149.954649 L405.271305,149.954649 L405.288755,149.919596 L405.288755,149.937123 C413.665066,144.461343 423.390062,135.492781 427.662978,121.839637 L427.662978,121.839637 L427.645527,121.839637 L427.630569,121.839637 C421.56273,125.237274 415.357779,126.959879 410.885427,127.828693 C408.740399,128.264382 406.568065,128.551326 404.383815,128.687491 C406.148823,127.858738 407.819099,127.014962 409.409601,126.156164 C410.358584,125.640384 411.279313,125.121265 412.171789,124.598809 C413.235447,123.972862 414.255895,123.344412 415.233131,122.713458 L415.233131,122.713458 C415.625355,122.458072 416.010931,122.207693 416.38986,121.962322 C416.958252,121.579243 417.509194,121.211186 418.052657,120.815588 C418.232149,120.690399 418.411642,120.565209 418.586148,120.432509 C419.114654,120.044422 419.630694,119.661343 420.136763,119.278264 C420.30379,119.153074 420.470818,119.027885 420.635353,118.89268 C420.967746,118.633956 421.291829,118.376901 421.607603,118.121514 C422.081263,117.734262 422.54329,117.347845 422.993683,116.962261 C423.296161,116.705206 423.590329,116.448151 423.876187,116.191095 C424.742072,115.419929 425.558928,114.649598 426.326757,113.880101 C430.933727,109.278142 433.833028,104.803877 435.655374,100.973084 C436.224056,99.7715877 436.627453,98.4980163 436.854483,97.1873599 C438.958532,86.7015043 439.053264,76.8165573 438.985954,72.6076931 Z" id="Path" fill="#F97316" fill-rule="nonzero"></path>
    </g>
</svg>