
            <svg xmlns="http://www.w3.org/2000/svg">
                <filter id="grayscale">
                    <feColorMatrix type="saturate" values="0"/>
                </filter>
                <g filter="url(#grayscale)">
                    <svg xmlns="http://www.w3.org/2000/svg" viewBox="-45 118.26499938964844 749.1300048828125 422.60000228881836"> <svg xmlns="http://www.w3.org/2000/svg" id="Layer_1" dataName="Layer 1" viewBox="-0.00567626953125 -0.0400390625 1014.862060546875 990.4992065429688" height="224.484375" width="230" y="188.26499938964844" x="214.56500244140625" preserveAspectRatio="xMinYMin" style="overflow: visible;"><path class="cls-1" d="M1507.37,762.57q0-2.18-.06-3.81c-.06-1.76-.11-3.07-.13-3.85l0-.84s-21.26,80.29-96.88,115.33c-.45.2-.9.42-1.33.63-69.52,32.79-86.69,87.67-87.44,89.51.37-2.22,13.18-73.41,88.86-119.72q3.39-2.07,6.51-4.27c99.62-69.42,1.21-216,1.21-216s1.71,21.19-5.66,50.1q-1.18,4.62-2.69,9.46a189.1,189.1,0,0,1-6.63,18.11,248.3,248.3,0,0,1-33.87,65.17,219.44,219.44,0,0,1-48.8,48.48c.74-.74,13.4-13.19,27.86-36.84a293.5,293.5,0,0,0,31.51-72.3q3.42-11.94,6.07-25.15c.2-.9.38-1.83.55-2.75,16-154.19-219-169.3-219-169.3s209.27,75.69,108.35,201.32c37.25-85.56-67.74-113.77-69.59-114.25,1.09.73,50.85,34.92,8.09,126.4C1160,834.17,1136,898.41,1146.14,1004.28c.09,1.05.21,2.11.32,3.18a79.19,79.19,0,0,1-9.06-16.87,60.67,60.67,0,0,1-2.83-9.41c-.32-1.41-.56-2.78-.74-4.08a.53.53,0,0,0,0-.13q-.22-1.5-.33-2.91a48,48,0,0,1,0-8.21c.09-.52.17-1.06.26-1.59.27-1.6.58-3.23.92-4.9a23,23,0,0,0-4.15.39c-.29,0-.6.11-.92.17-.48.1-1,.21-1.53.34l-1.1.3c-.51.15-1,.31-1.6.5s-1.13.38-1.71.61c-.87.35-1.77.75-2.71,1.19-.32.15-.62.31-.94.47s-.92.49-1.4.75l-1.41.84c-.48.3-1,.6-1.43.93s-1,.68-1.46,1-1,.75-1.46,1.15-1,.81-1.46,1.25-1,.89-1.46,1.37a50.87,50.87,0,0,0-6.08,7.19c-.49.7-1,1.44-1.44,2.19-.72,1.12-1.42,2.33-2.1,3.59q-.26.47-.51,1c-.51,1-1,2-1.47,3-.1.21-.21.41-.29.62s-.2.46-.3.69h0c.12-.81.23-1.61.37-2.41.41-2.4.94-4.8,1.58-7.16a77.29,77.29,0,0,1,7.75-18.31q1.29-2.21,2.71-4.33c1-1.43,1.94-2.84,3-4.21.63-.84,1.26-1.66,1.85-2.48q1.82-2.46,3.47-4.84l1.63-2.38c1-1.58,2.07-3.14,3-4.68a125.36,125.36,0,0,0,13.34-27.64c.81-2.44,1.47-4.81,2-7.13.22-.91.43-1.82.6-2.71s.35-1.86.5-2.77a68.78,68.78,0,0,0,.92-10.41c0-.05,0-.06,0-.08h0c.17-20.21-9.3-34.17-18.19-42.8-.52-.51-1-1-1.55-1.47s-1-.91-1.52-1.34-1-.85-1.48-1.24c-1.7-1.39-3.31-2.56-4.72-3.53l-1.18-.77a45.62,45.62,0,0,0-4.61-2.68c3.35,10.67,4.75,19.7,4.75,27.34q0,1,0,2c0,.7-.07,1.39-.11,2.07s-.08,1.07-.13,1.58a48.08,48.08,0,0,1-1.24,7.15c-.24,1-.51,1.9-.82,2.79q-.27.79-.54,1.53c-.16.43-.33.86-.51,1.27-.4,1-.82,1.89-1.28,2.77-.17.34-.35.69-.54,1a34.06,34.06,0,0,1-2.51,3.91c-.35.46-.69.92-1.06,1.37-.84-.36-1.66-.74-2.47-1.09-60.91-27.15-56.54-62.39-46.57-83.15a74.2,74.2,0,0,1,11.69-17.51c26-1.66,45.08,16.77,45.08,16.77-5.46-24.3-19.18-38.93-34.89-47.68-.52-14.95-8.18-26.34-19.13-35-8.6-6.82-19.23-12-30-15.87-2.83-1-5.68-2-8.51-2.81-6.35-1.92-12.59-3.43-18.34-4.6a225.86,225.86,0,0,0-28.09-4.08c3.07,1.28,6.84,4.39,9.76,8.68a26.31,26.31,0,0,1,4.66,13.65,73,73,0,0,0-13.17-10.84c-31.57-20.54-75.95-18.65-75.95-18.65s29.32,12.51,45.92,34.52c6.09,8.08,10.47,17.43,11,27.91s-.36,23.47-3.73,39.53c-.43,2-.87,4-1.37,6.08a71.92,71.92,0,0,1-3.2,10c-12.11,29.95-43.56,56.2-46.57,83.15a35.67,35.67,0,0,0-.24,3.57l-.29-.31c-.23-.23-.44-.47-.65-.7-.45-.48-.87-1-1.28-1.47s-.72-.91-1.08-1.37a37,37,0,0,1-2.51-3.91c-.18-.32-.36-.67-.54-1-.45-.88-.88-1.81-1.28-2.77-.17-.43-.34-.84-.5-1.27s-.37-1-.54-1.53c-.31-.91-.59-1.84-.83-2.79a48.11,48.11,0,0,1-1.23-7.15c-.06-.51-.11-1-.14-1.58s-.07-1.36-.1-2.07,0-1.31,0-2c0-7.63,1.4-16.67,4.77-27.34a44.31,44.31,0,0,0-4.63,2.68L887,837c-1.41,1-3,2.15-4.72,3.53-.49.39-1,.81-1.48,1.24s-1,.88-1.52,1.34-1,1-1.55,1.47c-8.88,8.63-18.35,22.62-18.18,42.8,0,0,0,0,0,0v0h0v.06a68.73,68.73,0,0,0,.91,10.41c.15.91.31,1.84.51,2.77s.38,1.81.59,2.71c.54,2.32,1.21,4.69,2,7.13a125.5,125.5,0,0,0,13.33,27.64c1,1.54,2,3.1,3,4.68l1.63,2.38c1.1,1.59,2.27,3.2,3.47,4.84.6.82,1.23,1.64,1.86,2.48,1.05,1.37,2,2.79,3,4.21s1.84,2.86,2.7,4.33a76.88,76.88,0,0,1,7.75,18.31A68.32,68.32,0,0,1,902,986.5c.14.8.26,1.6.37,2.41-.1-.23-.21-.46-.32-.69a5.75,5.75,0,0,0-.29-.62c-.47-1-1-2.05-1.46-3-.17-.33-.35-.65-.52-1-.67-1.26-1.37-2.45-2.09-3.59-.48-.75-.95-1.49-1.45-2.19a50.87,50.87,0,0,0-6.08-7.19c-.48-.48-1-.94-1.45-1.37s-1-.85-1.47-1.25-1-.78-1.45-1.15-1-.71-1.47-1-.95-.63-1.43-.93l-1.41-.84c-.48-.28-.94-.52-1.4-.75l-.94-.47c-.93-.44-1.84-.84-2.71-1.19-.57-.22-1.15-.42-1.71-.61s-1.08-.35-1.6-.5l-1.1-.3c-.53-.13-1-.24-1.52-.34-.32-.06-.63-.13-.93-.17a23,23,0,0,0-4.15-.39c.36,1.67.66,3.3.92,4.9l.24,1.53a49.39,49.39,0,0,1,0,8.27q-.13,1.41-.33,2.91a.57.57,0,0,1,0,.13c-.2,1.29-.44,2.66-.75,4.08a64.14,64.14,0,0,1-2.83,9.41,78.68,78.68,0,0,1-8.61,16.19c0-.83-.08-1.67-.13-2.5C864,898.41,840,834.17,785.72,718c-42.75-91.48,7-125.67,8.1-126.4-1.86.48-106.85,28.69-69.59,114.25C623.31,580.26,832.57,504.57,832.57,504.57s-235,15.11-219,169.3c.19.92.37,1.85.55,2.75q2.63,13.2,6.07,25.15a293.88,293.88,0,0,0,31.51,72.3c14.46,23.65,27.12,36.1,27.86,36.84a219.44,219.44,0,0,1-48.8-48.48,248.55,248.55,0,0,1-33.86-65.17,186.43,186.43,0,0,1-6.63-18.11q-1.51-4.85-2.69-9.46c-7.38-28.91-5.66-50.1-5.66-50.1s-98.42,146.54,1.2,216q3.12,2.21,6.52,4.27c75.68,46.31,88.48,117.5,88.86,119.72-.76-1.84-17.92-56.72-87.44-89.51-.44-.21-.88-.43-1.33-.63-75.62-35-96.88-115.33-96.88-115.33s0,.36-.05,1.07-.07,2-.11,3.62c0,1.27-.06,2.8-.08,4.54-.24,17.18.22,56.15,7.48,97.47a55.06,55.06,0,0,0,1.9,7.72,54.13,54.13,0,0,0,2.91,7.4c7.3,15.3,18.94,33.18,37.43,51.55,3.09,3.07,6.35,6.14,9.82,9.23q1.74,1.53,3.54,3.08c1.8,1.52,3.66,3.07,5.58,4.63q1.9,1.53,3.88,3.08c.66.5,1.33,1,2,1.54,2,1.54,4.08,3.07,6.21,4.61l2.15,1.53c2.16,1.54,4.38,3.06,6.67,4.58,1.51,1,3.06,2,4.63,3h0c3.94,2.53,8,5,12.29,7.54,3.56,2.08,7.26,4.15,11.07,6.21q9.56,5.13,20.16,10.11a191.58,191.58,0,0,1-26.08-3.43c-18-3.47-42.92-10.37-67.3-24,17.14,54.55,56.15,90.37,89.76,112.24l0-.07a1.09,1.09,0,0,1,.08.15C658,1091.76,684.53,1100,684.53,1100c-12,50.06-25.49,63.62-25.9,64,46.39-18.75,76.89-44.82,96.81-69.59a194.22,194.22,0,0,0,26.17-42.6c.13-.3.26-.58.39-.86,0-.08.1-.16.15-.24.36-.63.71-1.25,1.05-1.88.81-1.5,1.57-3,2.27-4.54.34-.74.67-1.51,1-2.26.24-.58.49-1.16.71-1.74.06-.16.12-.32.19-.49s.2-.52.28-.77c.18-.46.35-.92.51-1.39l.54-1.65c.21-.59.4-1.21.57-1.82s.27-1,.41-1.47c.4-1.47.76-3,1.05-4.46.06-.28.12-.54.16-.82s.12-.58.17-.88c.13-.71.24-1.42.34-2.13.08-.55.16-1.11.22-1.68s.17-1.34.21-2c0-.12,0-.18,0-.18.08-1,.16-1.93.22-2.91a70.09,70.09,0,0,1,3.13,9,66.52,66.52,0,0,1,2.57,20.58c0,.44,0,.88-.07,1.32s-.06,1-.09,1.54c-.1,1.33-.25,2.64-.44,3.94,0,.41-.1.79-.17,1.21s-.17,1-.26,1.54c-.07.34-.13.68-.21,1s-.15.8-.24,1.19c-.12.58-.24,1.15-.39,1.72s-.28,1.12-.44,1.69v0c-.15.55-.3,1.11-.47,1.66s-.35,1.12-.53,1.68c-.14.4-.28.83-.42,1.23s-.3.86-.46,1.28-.29.78-.44,1.16-.34.87-.52,1.29-.43,1-.66,1.54c0,0,0,.09-.05.13-.23.53-.47,1.05-.73,1.57s-.37.8-.58,1.2a74.06,74.06,0,0,1-6,10c-.24.35-.51.73-.77,1.09s-.71,1-1.1,1.45-.58.77-.89,1.16c-1.25,1.57-2.58,3.09-4,4.6-.75.8-1.49,1.58-2.27,2.37l-.09.08h.22c4.71.17,17.83-.16,27.72-7.45l.84-.63h0c-.18.25-2.1,3.22-.59,8.46.1.34.21.68.34,1h0c.08.24.18.47.26.71h0l.32.74c.11.25.23.52.36.78s.4.79.64,1.19h0a18.9,18.9,0,0,0,1,1.68v0c.27.42.58.86.9,1.29l.35.48c.44.6.94,1.22,1.47,1.85.29.32.59.66.87,1s.59.65.9,1q.72.76,1.53,1.56c.7.69,1.43,1.38,2.24,2.08l0,0,1.2,1,2.1,1.73c.46.36.92.72,1.4,1.08.78.59,1.58,1.21,2.44,1.81q.76.57,1.59,1.14c1.16.81,2.37,1.61,3.65,2.45l.09,0s0,0,0,0c.36.21.73.41,1.1.61,1.55.86,3.09,1.73,4.6,2.6l2,1.18c2.27,1.31,4.5,2.64,6.67,4l.07,0,2,1.27,1.06.64c.34.23.69.45,1,.67.71.43,1.41.87,2.11,1.31s1.62,1.06,2.44,1.58l2.71,1.77,3.48,2.32,2.11,1.45q6.76,4.63,12.85,9.33c.38.3.74.59,1.12.87s.76.57,1.12.86c.74.58,1.47,1.17,2.19,1.75.19.15.36.29.54.41l1.63,1.32,1.06.88h0c2.39-9.42-6.38-22.11-7-23l2.06,1.7c5.46,4.56,10.24,8.93,14.43,13.14,17.59,17.56,24.73,31.62,27.63,40.36,2.11,6.39,2,9.93,2,9.93-4-5.91-13.49-8.49-22.31-9.57,2.09.88,4.62,2.88,7.31,5.83,4.88,5.34,10.33,13.77,14.84,24.25,6.46,15,10.94,34.28,8.9,54.63-.08-.19-.19-.41-.33-.7s-.17-.33-.25-.52c-.19-.34-.38-.73-.62-1.15s-.44-.83-.71-1.3c0-.08-.09-.16-.13-.24l-.86-1.47a1,1,0,0,1-.13-.22l-.6-.95c-.21-.34-.42-.68-.64-1l-.7-1.08c-.47-.74-1-1.5-1.56-2.31l-.87-1.23c-.59-.81-1.22-1.67-1.91-2.56-.34-.46-.69-.9-1-1.37-.71-.9-1.48-1.85-2.28-2.8l-1.24-1.47c-.85-1-1.74-2-2.69-3q-2.79-3-6.17-6.26c-1.05-1-2.14-2-3.27-3l-.25-.23-.11-.11c-.58-.5-1.17-1-1.77-1.53s-1.1-.94-1.68-1.42c-2-1.65-4.09-3.31-6.31-5-.38-.29-.75-.55-1.13-.82-1.13-.84-2.3-1.65-3.49-2.48l-1.2-.81c-1.36-.92-2.76-1.82-4.2-2.73s-2.92-1.82-4.45-2.7c-3-1.77-6.25-3.52-9.63-5.21-.78-.4-1.57-.78-2.38-1.17-1-.49-2.07-1-3.14-1.48s-2.14-1-3.23-1.44-2.2-1-3.32-1.41-2.26-.92-3.43-1.37c-.52-.21-1.05-.43-1.59-.62-1.94-.74-4-1.47-6-2.15-.51-.19-1-.37-1.57-.54l-2.12-.7c-1.12-.37-2.24-.72-3.39-1.07a240.45,240.45,0,0,0-39-8.26l.1,0h.06l.32.12.07,0,.51.22c.3.11.65.25,1,.42h0c.42.18.86.37,1.37.61l1.17.53a141.75,141.75,0,0,1,29.68,19c.4.35.83.69,1.24,1,1.21,1,2.43,2.11,3.64,3.23s2.42,2.26,3.62,3.45c.37.35.72.71,1.08,1.09,1.06,1,2.1,2.15,3.15,3.3.42.44.83.9,1.23,1.37q1.84,2.05,3.61,4.24c.78,1,1.57,2,2.32,3,1.16,1.52,2.27,3.09,3.36,4.71l1,1.48.3.46c.35.53.68,1.06,1,1.59,1.42,2.27,2.76,4.64,4,7.09a69.79,69.79,0,0,1,4.57,11.06c.06.22.14.43.2.64s.08.21.1.32a1.36,1.36,0,0,1,.08.32c.06.19.13.4.18.59s.15.52.21.78.21.66.29,1,.21.83.32,1.26c.19.79.38,1.59.55,2.38.1.42.18.84.25,1.25.48,2.37.86,4.73,1.17,7.09.07.48.11.94.17,1.41.3,2.48.53,5,.72,7.49.07.63.1,1.25.15,1.88s.1,1.26.14,1.88.09,1.26.13,1.91c.16,2.15.3,4.3.46,6.48.09,1,.17,2.06.27,3.08,0,.24,0,.47.05.69.13,1.27.25,2.54.38,3.81.17,1.52.36,3.05.58,4.59s.45,3.08.75,4.64c.18,1.06.39,2.1.61,3.15.17.78.34,1.56.52,2.35.1.34.16.66.26,1,.36,1.49.76,3,1.21,4.49.15.5.31,1,.47,1.52.35,1.1.73,2.23,1.13,3.37.24.65.5,1.31.74,2h0c.27.71.56,1.42.85,2.13v0c.44,1.06.89,2.12,1.38,3.19a.34.34,0,0,1,0,.11c.44.94.9,1.9,1.37,2.85s.85,1.68,1.31,2.52c.19.37.39.74.59,1.1.61,1.11,1.25,2.25,1.94,3.37,1.36,2.26,2.85,4.57,4.49,6.89.54.78,1.1,1.56,1.69,2.35l1.1,1.48c.75,1,1.53,2,2.33,3l1.22,1.51c.35.4.68.8,1,1.21l1.85,2.15c1.26,1.43,2.57,2.87,4,4.35.69.72,1.37,1.45,2.11,2.2.4.42.81.85,1.23,1.27.85.86,1.72,1.69,2.6,2.58l2.57,2.46,1.55,1.43.51.47,1.36,1.24c.84.74,1.67,1.5,2.55,2.26-.24-.87-6.2-23.28,1.52-45.53h0l.23.12a.07.07,0,0,0,.05,0,.26.26,0,0,0,.11.08l.05,0,.18.11a4.6,4.6,0,0,0,.46.3l.08.06.84.58.55.4.6.45c.22.16.41.32.63.49l.74.61.66.56.48.42c.33.29.66.6,1,.94s.49.5.75.77a7.91,7.91,0,0,1,.56.59c.36.36.71.74,1.06,1.16a21.13,21.13,0,0,1,1.42,1.77c.25.32.48.63.71,1a.3.3,0,0,1,.09.13c.47.66.9,1.35,1.33,2.07.23.37.43.74.63,1.13l.6,1.21a9.15,9.15,0,0,1,.47,1.07.3.3,0,0,1,.08.16c4.45,9.23,6.72,22.85.28,41.84l-1.42,2.72.16,0c.69-.25,1.36-.53,2.05-.82s1.36-.57,2-.89h0l2.07-1a73.38,73.38,0,0,0,18.66-12.61l1-.93h0c12.85,18.27,30.88,52.16,41.14,107.59,0,0,0,0,0-.07,10.28-55.41,28.3-89.27,41.14-107.53h0l1,.92a74.26,74.26,0,0,0,18.66,12.61l2.07,1h0c.68.32,1.37.61,2.05.89s1.37.55,2,.82l.16,0-1.42-2.72c-6.43-19-4.19-32.57.26-41.8,0,0,0,0,0,0,.17-.41.36-.81.55-1.22s.39-.81.61-1.21.41-.76.64-1.13a24.26,24.26,0,0,1,1.32-2.07.43.43,0,0,1,.09-.13c.21-.33.46-.64.71-1a19.29,19.29,0,0,1,1.42-1.77c.35-.41.7-.8,1-1.16.18-.21.38-.41.56-.59l.76-.77c.34-.33.69-.65,1-.94.16-.14.32-.29.48-.42s.45-.4.67-.57c.48-.41.93-.78,1.35-1.09l.6-.45c.19-.16.38-.28.55-.4.32-.23.61-.42.85-.58,0,0,0,0,.09-.06l.39-.26a1.62,1.62,0,0,1,.29-.17.35.35,0,0,0,.11-.08l0,0,.23-.12c7.72,22.25,1.77,44.66,1.53,45.53.86-.76,1.71-1.51,2.54-2.26l1.36-1.24c.7-.63,1.39-1.27,2.06-1.9.89-.84,1.75-1.66,2.57-2.46s1.75-1.72,2.6-2.58c.42-.42.84-.85,1.24-1.27l2.12-2.2c1.37-1.48,2.69-2.92,4-4.35l1.84-2.15,1-1.21c.41-.5.81-1,1.23-1.51.79-1,1.58-2,2.32-3,.38-.49.75-1,1.1-1.48.6-.79,1.16-1.57,1.7-2.35,1.63-2.32,3.13-4.63,4.48-6.89.68-1.12,1.32-2.26,1.94-3.37.21-.36.4-.73.6-1.1.45-.84.88-1.68,1.3-2.52s.93-1.91,1.38-2.85c0,0,0-.07,0-.11.49-1.07.94-2.13,1.39-3.19a0,0,0,0,0,0,0c.3-.71.57-1.42.85-2.13h0c.25-.67.5-1.32.73-2,.4-1.13.78-2.26,1.15-3.37l.46-1.52c.45-1.5.85-3,1.21-4.49.09-.35.16-.67.25-1,.18-.79.36-1.57.53-2.35.21-1,.42-2.09.6-3.15.29-1.56.53-3.11.75-4.64s.41-3.07.58-4.59c.13-1.27.26-2.54.38-3.81,0-.23,0-.46.06-.69.1-1,.18-2,.26-3.08.16-2.19.32-4.34.46-6.48,0-.65.09-1.27.14-1.91s.09-1.27.13-1.88l.15-1.88c.2-2.51.43-5,.72-7.49l.18-1.41c.31-2.36.68-4.72,1.16-7.09.07-.41.15-.83.26-1.25.17-.79.35-1.59.55-2.38.1-.43.2-.84.32-1.26s.18-.67.28-1,.13-.51.22-.78.12-.4.17-.59,0-.23.08-.32.07-.22.11-.32.13-.42.19-.64a71.72,71.72,0,0,1,4.57-11.06c1.27-2.45,2.61-4.82,4-7.09.33-.53.67-1.06,1-1.59.1-.16.2-.3.31-.46.32-.5.64-1,1-1.48,1.09-1.62,2.2-3.19,3.36-4.71.76-1,1.55-2,2.33-3q1.79-2.19,3.6-4.24c.4-.47.83-.93,1.24-1.37,1-1.15,2.08-2.25,3.15-3.3a7,7,0,0,1,.54-.55c.17-.19.35-.36.54-.54,1.2-1.19,2.4-2.35,3.61-3.45s2.43-2.2,3.65-3.23c.41-.34.83-.68,1.23-1a141.76,141.76,0,0,1,29.7-19l1.16-.53c.5-.24,1-.43,1.36-.61h0l1-.42.52-.22.07,0,.38-.13s0,0,0,0a239.6,239.6,0,0,0-39,8.25c-1.16.35-2.28.7-3.39,1.07l-2.13.7c-.53.17-1,.35-1.57.54q-3.06,1-6,2.15c-.54.19-1.06.41-1.59.62-1.17.43-2.29.9-3.42,1.37s-2.23.93-3.33,1.41-2.16,1-3.23,1.44-2.09,1-3.13,1.48c-.82.39-1.61.77-2.39,1.17-3.38,1.69-6.59,3.44-9.63,5.21q-2.28,1.34-4.44,2.7c-1.44.91-2.84,1.81-4.2,2.73l-1.21.81c-1.19.83-2.36,1.64-3.49,2.48-.38.27-.74.53-1.12.82-2.22,1.64-4.33,3.3-6.31,5-.59.48-1.14,1-1.69,1.42s-1.19,1-1.76,1.53l-.37.34c-1.13,1-2.22,2-3.26,3q-3.39,3.21-6.17,6.26c-1,1-1.85,2-2.7,3l-1.23,1.47c-.8,1-1.57,1.9-2.28,2.8l-1.06,1.37c-.67.88-1.3,1.74-1.91,2.56l-.87,1.23c-.56.81-1.08,1.57-1.56,2.31-.24.37-.47.72-.69,1.08s-.44.68-.65,1l-.59.95a1.64,1.64,0,0,1-.14.22c-.3.51-.58,1-.86,1.47l-.12.24c-.27.47-.5.9-.71,1.3s-.45.81-.62,1.15c-.08.19-.17.36-.25.52s-.26.51-.34.7-.21.49-.24.51l-.21-.4.45-.11v0c-2-20.32,2.44-39.56,8.89-54.58v0c4.51-10.48,10-18.91,14.84-24.25a35.94,35.94,0,0,1,3.89-3.69,14.94,14.94,0,0,1,3.42-2.14c-8.82,1.08-18.33,3.66-22.31,9.57,0,0-.15-3.49,1.91-9.78,2.86-8.73,10-22.84,27.69-40.51,4.19-4.2,9-8.58,14.43-13.14.68-.58,1.37-1.15,2.07-1.72v0c-.61.89-9.38,13.59-7,23h0l1.07-.87c.35-.3.72-.58,1.1-.88.17-.14.33-.29.52-.44.9-.72,1.8-1.44,2.73-2.16.73-.57,1.49-1.17,2.25-1.73.37-.3.74-.58,1.14-.87s.76-.57,1.13-.86c.78-.58,1.55-1.18,2.35-1.75.38-.29.77-.56,1.16-.85.8-.58,1.6-1.18,2.43-1.76l1.14-.8,2.56-1.81c.28-.2.57-.38.84-.58l.1,0c.69-.48,1.39-1,2.1-1.45,2.8-1.9,5.67-3.78,8.64-5.67l3.15-2,3.1-1.91h0c.77-.45,1.51-.92,2.27-1.36s1.36-.82,2.05-1.22,1.6-1,2.42-1.41,1.35-.8,2-1.18q2.25-1.3,4.59-2.6l1.12-.64q2-1.26,3.75-2.49l1.59-1.14c.86-.6,1.66-1.21,2.44-1.81.48-.36.94-.73,1.39-1.08.74-.59,1.44-1.16,2.1-1.73l1.2-1a.07.07,0,0,0,0,0c.8-.7,1.53-1.4,2.23-2.08.55-.52,1.07-1.05,1.54-1.56l.89-1c.31-.33.6-.67.87-1,.53-.63,1-1.25,1.48-1.85a4.71,4.71,0,0,0,.34-.48c.32-.43.63-.87.91-1.29l0,0c.37-.59.71-1.14,1-1.68h0c.24-.4.44-.81.64-1.19a5.35,5.35,0,0,0,.35-.78c.12-.25.21-.49.32-.74h0c.08-.24.19-.47.27-.71h0c.12-.36.24-.7.33-1,1.57-5.49-.61-8.48-.61-8.48h0l.83.62c9.91,7.29,23,7.62,27.74,7.45h.22l-.09-.09c-.78-.78-1.54-1.57-2.27-2.37-1.39-1.5-2.72-3-4-4.6-.31-.39-.61-.77-.9-1.16l-1.1-1.45c-.26-.36-.52-.71-.76-1.09a74.13,74.13,0,0,1-6-10c-.2-.4-.4-.8-.58-1.2s-.49-1-.72-1.57l-.06-.13c-.23-.51-.44-1-.65-1.54l-.53-1.29c-.15-.38-.3-.78-.42-1.16s-.32-.86-.47-1.28-.29-.82-.41-1.23-.37-1.12-.54-1.68-.32-1.1-.47-1.66v0c-.16-.57-.31-1.13-.45-1.69s-.26-1.14-.39-1.72l0-.18c-.15-.68-.28-1.34-.41-2s-.23-1.34-.35-2c0-.25-.05-.5-.09-.74-.18-1.3-.33-2.61-.43-3.94,0-.51-.07-1-.1-1.54s0-.88,0-1.32a66.22,66.22,0,0,1,2.55-20.59,73.07,73.07,0,0,1,3.14-9c.07,1,.14,2,.22,2.91a1.35,1.35,0,0,0,0,.18c0,.69.13,1.36.22,2s.13,1.13.22,1.68c.1.71.2,1.42.34,2.13,0,.3.1.6.16.88s.1.54.16.82c.3,1.51.65,3,1,4.46l.42,1.47c.17.61.35,1.23.57,1.82s.35,1.11.54,1.65.33.93.5,1.39a8,8,0,0,0,.29.77c.07.17.12.33.18.49.23.58.47,1.16.71,1.74.32.75.65,1.52,1,2.26.7,1.54,1.45,3,2.26,4.54.35.63.69,1.25,1.06,1.88,0,.08.1.16.15.24h0c.12.29.24.56.38.85a193.83,193.83,0,0,0,26.17,42.6c19.91,24.77,50.4,50.83,96.8,69.59-.41-.41-13.85-14-25.9-64,0,0,26.49-8.22,57.66-28.47h0l.07-.14,0,.07c33.6-21.87,72.61-57.69,89.75-112.22h0l-.07,0-.06,0c-24.34,13.57-49.23,20.45-67.17,23.92a191.38,191.38,0,0,1-26.08,3.43c7.08-3.31,13.78-6.68,20.16-10.11q5.71-3.09,11.08-6.22,6.4-3.75,12.28-7.53h0q2.36-1.53,4.64-3c2.28-1.53,4.49-3,6.67-4.58.72-.5,1.44-1,2.14-1.53,2.12-1.55,4.19-3.08,6.22-4.61.67-.5,1.34-1,2-1.54q2-1.55,3.9-3.08,2.85-2.32,5.56-4.63,1.82-1.54,3.54-3.08,5.21-4.62,9.83-9.23c18.48-18.38,30.11-36.25,37.42-51.55a58.62,58.62,0,0,0,4.81-15.12C1507.26,818.86,1507.64,779.38,1507.37,762.57Z" transform="translate(-492.57 -504.57)" style="fill: #f97316;"></path></svg> <svg y="435.26499938964844" viewBox="4.690000057220459 0.05000000074505806 609.1300048828125 35.60000228881836" x="25" height="35.60000228881836" width="609.1300048828125" style="overflow: visible;"><g fill="#ffffff" fill-opacity="1" style=""><path d="M4.69 34.50L4.69 1.10L24.70 1.10L24.70 5.84L9.61 5.84L9.61 15.87L22.82 15.87L22.82 20.56L9.61 20.56L9.61 34.50L4.69 34.50ZM31.88 34.50L31.88 1.10L36.80 1.10L36.80 34.50L31.88 34.50ZM46.18 1.10L55.34 1.10Q57.96 1.10 60.19 1.82Q62.42 2.53 64.01 3.86Q65.60 5.20 66.49 7.15Q67.39 9.11 67.39 11.68L67.39 11.68Q67.39 13.66 66.79 15.59Q66.19 17.53 64.86 19.09Q63.53 20.65 61.36 21.60Q59.20 22.54 55.98 22.54L55.98 22.54L51.11 22.54L51.11 34.50L46.18 34.50L46.18 1.10ZM51.11 17.85L55.89 17.85Q57.78 17.85 59.04 17.25Q60.31 16.65 61.02 15.75Q61.73 14.86 62.03 13.82Q62.33 12.79 62.33 11.82L62.33 11.82Q62.33 10.90 62.03 9.89Q61.73 8.88 61.02 7.96Q60.31 7.04 59.11 6.44Q57.91 5.84 56.17 5.84L56.17 5.84L51.11 5.84L51.11 17.85ZM55.71 20.84L61.55 20.70L70.20 34.50L64.49 34.50L55.71 20.84ZM76.77 34.50L76.77 1.10L98.72 1.10L98.72 5.84L81.70 5.84L81.70 15.36L96.83 15.36L96.83 20.10L81.70 20.10L81.70 29.76L99.36 29.76L99.36 34.50L76.77 34.50ZM121.53 1.10L130.41 1.10Q135.47 1.10 138.39 3.17Q141.31 5.24 141.31 9.52L141.31 9.52Q141.31 12.28 140.05 14.26Q138.78 16.24 136.55 17.32Q134.32 18.40 131.28 18.54L131.28 18.54L130.55 15.92Q134.09 16.01 136.87 17.14Q139.66 18.26 141.29 20.26Q142.92 22.26 142.92 25.02L142.92 25.02Q142.92 27.55 141.98 29.37Q141.04 31.19 139.45 32.31Q137.86 33.44 135.86 33.97Q133.86 34.50 131.70 34.50L131.70 34.50L121.53 34.50L121.53 1.10ZM126.45 15.55L131.28 15.55Q133.86 15.55 135.06 14.08Q136.25 12.60 136.25 10.58L136.25 10.58Q136.25 8.10 134.71 6.97Q133.17 5.84 130.64 5.84L130.64 5.84L126.45 5.84L126.45 15.55ZM126.45 29.95L131.47 29.95Q133.26 29.95 134.71 29.42Q136.16 28.89 137.01 27.81Q137.86 26.73 137.86 25.07L137.86 25.07Q137.86 23.23 136.87 22.20Q135.88 21.16 134.34 20.72Q132.80 20.29 131.15 20.29L131.15 20.29L126.45 20.29L126.45 29.95ZM150.24 34.50L150.24 1.10L155.16 1.10L155.16 34.50L150.24 34.50ZM164.54 1.10L173.70 1.10Q176.32 1.10 178.55 1.82Q180.78 2.53 182.37 3.86Q183.95 5.20 184.85 7.15Q185.75 9.11 185.75 11.68L185.75 11.68Q185.75 13.66 185.15 15.59Q184.55 17.53 183.22 19.09Q181.88 20.65 179.72 21.60Q177.56 22.54 174.34 22.54L174.34 22.54L169.46 22.54L169.46 34.50L164.54 34.50L164.54 1.10ZM169.46 17.85L174.25 17.85Q176.13 17.85 177.40 17.25Q178.66 16.65 179.38 15.75Q180.09 14.86 180.39 13.82Q180.69 12.79 180.69 11.82L180.69 11.82Q180.69 10.90 180.39 9.89Q180.09 8.88 179.38 7.96Q178.66 7.04 177.47 6.44Q176.27 5.84 174.52 5.84L174.52 5.84L169.46 5.84L169.46 17.85ZM174.06 20.84L179.91 20.70L188.55 34.50L182.85 34.50L174.06 20.84ZM206.03 34.50L195.13 34.50L195.13 1.10L204.42 1.10Q209.39 1.10 212.89 2.62Q216.38 4.14 218.52 6.62Q220.66 9.11 221.65 12.14Q222.64 15.18 222.64 18.26L222.64 18.26Q222.64 21.99 221.31 24.98Q219.97 27.97 217.67 30.11Q215.37 32.25 212.38 33.37Q209.39 34.50 206.03 34.50L206.03 34.50ZM200.05 5.84L200.05 29.76L205.11 29.76Q207.83 29.76 210.10 28.98Q212.38 28.20 214.06 26.68Q215.74 25.16 216.66 22.95Q217.58 20.75 217.58 17.89L217.58 17.89Q217.58 14.81 216.54 12.54Q215.51 10.26 213.81 8.76Q212.11 7.27 210.01 6.55Q207.92 5.84 205.76 5.84L205.76 5.84L200.05 5.84ZM242.14 5.84L242.14 1.10L264.41 1.10L264.41 5.84L255.62 5.84L255.62 34.50L250.70 34.50L250.70 5.84L242.14 5.84ZM271.35 34.50L271.35 1.10L293.30 1.10L293.30 5.84L276.28 5.84L276.28 15.36L291.41 15.36L291.41 20.10L276.28 20.10L276.28 29.76L293.94 29.76L293.94 34.50L271.35 34.50ZM324.02 27.55L326.09 31.97Q325.36 32.48 323.91 33.19Q322.46 33.90 320.50 34.41Q318.55 34.91 316.20 34.87L316.20 34.87Q312.29 34.82 309.19 33.49Q306.08 32.15 303.92 29.83Q301.76 27.51 300.59 24.50Q299.41 21.48 299.41 18.08L299.41 18.08Q299.41 14.31 300.61 11.16Q301.81 8.00 304.04 5.66Q306.27 3.31 309.28 2.02Q312.29 0.74 315.88 0.74L315.88 0.74Q318.96 0.74 321.45 1.56Q323.93 2.39 325.63 3.50L325.63 3.50L323.70 8.10Q322.37 7.18 320.41 6.32Q318.46 5.47 316.07 5.47L316.07 5.47Q313.72 5.47 311.63 6.42Q309.53 7.36 307.95 9.04Q306.36 10.72 305.44 12.95Q304.52 15.18 304.52 17.80L304.52 17.80Q304.52 20.47 305.35 22.72Q306.18 24.98 307.72 26.63Q309.26 28.29 311.42 29.21Q313.58 30.13 316.30 30.13L316.30 30.13Q318.87 30.13 320.83 29.35Q322.78 28.57 324.02 27.55L324.02 27.55ZM355.30 1.10L360.23 1.10L360.23 34.50L355.30 34.50L355.30 20.10L338.38 20.10L338.38 34.50L333.45 34.50L333.45 1.10L338.38 1.10L338.38 15.41L355.30 15.41L355.30 1.10ZM398.87 35.65L398.73 35.65L373.01 10.12L374.44 10.58L374.58 34.50L369.61 34.50L369.61 0.05L369.84 0.05L395.23 25.62L394.08 25.30L393.99 1.10L398.87 1.10L398.87 35.65ZM406.23 17.85L406.23 17.85Q406.23 14.40 407.54 11.32Q408.85 8.23 411.19 5.84Q413.54 3.45 416.62 2.09Q419.70 0.74 423.25 0.74L423.25 0.74Q426.74 0.74 429.82 2.09Q432.91 3.45 435.30 5.84Q437.69 8.23 439.02 11.32Q440.36 14.40 440.36 17.85L440.36 17.85Q440.36 21.39 439.02 24.47Q437.69 27.55 435.32 29.90Q432.95 32.25 429.85 33.56Q426.74 34.87 423.25 34.87L423.25 34.87Q419.70 34.87 416.62 33.58Q413.54 32.29 411.19 29.97Q408.85 27.65 407.54 24.54Q406.23 21.44 406.23 17.85ZM411.29 17.85L411.29 17.85Q411.29 20.42 412.23 22.66Q413.17 24.89 414.83 26.57Q416.48 28.24 418.67 29.19Q420.85 30.13 423.38 30.13L423.38 30.13Q425.87 30.13 428.03 29.19Q430.19 28.24 431.82 26.57Q433.46 24.89 434.38 22.66Q435.30 20.42 435.30 17.85L435.30 17.85Q435.30 15.27 434.35 13.04Q433.41 10.81 431.78 9.11Q430.15 7.41 427.96 6.44Q425.78 5.47 423.29 5.47L423.29 5.47Q420.72 5.47 418.55 6.44Q416.39 7.41 414.74 9.11Q413.08 10.81 412.18 13.06Q411.29 15.32 411.29 17.85ZM447.67 34.50L447.67 1.10L452.59 1.10L452.59 29.76L469.29 29.76L469.29 34.50L447.67 34.50ZM473.75 17.85L473.75 17.85Q473.75 14.40 475.06 11.32Q476.38 8.23 478.72 5.84Q481.07 3.45 484.15 2.09Q487.23 0.74 490.77 0.74L490.77 0.74Q494.27 0.74 497.35 2.09Q500.43 3.45 502.83 5.84Q505.22 8.23 506.55 11.32Q507.89 14.40 507.89 17.85L507.89 17.85Q507.89 21.39 506.55 24.47Q505.22 27.55 502.85 29.90Q500.48 32.25 497.37 33.56Q494.27 34.87 490.77 34.87L490.77 34.87Q487.23 34.87 484.15 33.58Q481.07 32.29 478.72 29.97Q476.38 27.65 475.06 24.54Q473.75 21.44 473.75 17.85ZM478.81 17.85L478.81 17.85Q478.81 20.42 479.76 22.66Q480.70 24.89 482.36 26.57Q484.01 28.24 486.20 29.19Q488.38 30.13 490.91 30.13L490.91 30.13Q493.40 30.13 495.56 29.19Q497.72 28.24 499.35 26.57Q500.99 24.89 501.91 22.66Q502.83 20.42 502.83 17.85L502.83 17.85Q502.83 15.27 501.88 13.04Q500.94 10.81 499.31 9.11Q497.67 7.41 495.49 6.44Q493.30 5.47 490.82 5.47L490.82 5.47Q488.24 5.47 486.08 6.44Q483.92 7.41 482.26 9.11Q480.61 10.81 479.71 13.06Q478.81 15.32 478.81 17.85ZM541.56 17.94L541.56 31.56Q540.87 32.15 539.63 32.75Q538.38 33.35 536.84 33.81Q535.30 34.27 533.69 34.57Q532.08 34.87 530.66 34.87L530.66 34.87Q526.61 34.87 523.39 33.63Q520.17 32.38 517.87 30.18Q515.57 27.97 514.35 25.00Q513.13 22.03 513.13 18.54L513.13 18.54Q513.13 14.26 514.51 10.95Q515.89 7.64 518.26 5.36Q520.63 3.08 523.73 1.91Q526.84 0.74 530.24 0.74L530.24 0.74Q533.23 0.74 535.78 1.43Q538.34 2.12 540.18 3.22L540.18 3.22L538.57 7.73Q537.65 7.22 536.29 6.74Q534.93 6.26 533.51 5.98Q532.08 5.70 530.89 5.70L530.89 5.70Q527.94 5.70 525.62 6.55Q523.30 7.41 521.64 9.02Q519.98 10.63 519.09 12.93Q518.19 15.23 518.19 18.12L518.19 18.12Q518.19 20.75 519.11 22.93Q520.03 25.12 521.69 26.70Q523.34 28.29 525.64 29.14Q527.94 29.99 530.75 29.99L530.75 29.99Q532.36 29.99 533.92 29.67Q535.49 29.35 536.59 28.75L536.59 28.75L536.59 22.68L530.15 22.68L530.15 17.94L541.56 17.94ZM549.88 34.50L549.88 1.10L554.81 1.10L554.81 34.50L549.88 34.50ZM564.19 34.50L564.19 1.10L586.13 1.10L586.13 5.84L569.11 5.84L569.11 15.36L584.25 15.36L584.25 20.10L569.11 20.10L569.11 29.76L586.78 29.76L586.78 34.50L564.19 34.50ZM613.59 3.73L611.71 7.50Q609.96 6.58 607.94 5.93Q605.91 5.29 604.03 5.29L604.03 5.29Q601.45 5.29 599.93 6.46Q598.41 7.64 598.41 9.66L598.41 9.66Q598.41 11.09 599.43 12.14Q600.44 13.20 602.05 13.98Q603.66 14.77 605.45 15.46L605.45 15.46Q606.97 16.01 608.46 16.77Q609.96 17.53 611.18 18.63Q612.40 19.73 613.11 21.37Q613.82 23 613.82 25.35L613.82 25.35Q613.82 28.01 612.51 30.18Q611.20 32.34 608.74 33.60Q606.28 34.87 602.78 34.87L602.78 34.87Q600.67 34.87 598.67 34.38Q596.67 33.90 594.89 33.10Q593.12 32.29 591.70 31.33L591.70 31.33L593.91 27.51Q595.01 28.29 596.44 29.00Q597.86 29.72 599.40 30.13Q600.94 30.54 602.32 30.54L602.32 30.54Q603.84 30.54 605.31 30.02Q606.79 29.49 607.75 28.36Q608.72 27.23 608.72 25.39L608.72 25.39Q608.72 23.83 607.87 22.75Q607.02 21.67 605.61 20.88Q604.21 20.10 602.60 19.50L602.60 19.50Q601.04 18.91 599.43 18.17Q597.82 17.43 596.44 16.40Q595.06 15.36 594.20 13.82Q593.35 12.28 593.35 10.03L593.35 10.03Q593.35 7.36 594.62 5.36Q595.88 3.36 598.14 2.21Q600.39 1.06 603.34 0.92L603.34 0.92Q606.69 0.92 609.18 1.75Q611.66 2.58 613.59 3.73L613.59 3.73Z" transform="translate(0, 0)"></path></g></svg></svg>
                </g>
            </svg>
        